<svg xmlns="http://www.w3.org/2000/svg" viewBox="0 0 32 32" enable-background="new 0 0 32 32">
    <path style="text-indent:0;text-align:start;line-height:normal;text-transform:none;block-progression:tb;-inkscape-font-specification:Bitstream Vera Sans" d="M 15 7 C 11.154545 7 8 10.154545 8 14 L 8 18 C 8 21.845455 11.154545 25 15 25 C 17.250704 25 19.279113 23.917309 20.5625 22.25 C 21.39327 23.869622 23.067051 25 25 25 L 25 23 C 23.345455 23 22 21.654545 22 20 L 22 18 L 22 14 L 22 7 L 20 7 L 20 9.125 C 18.726051 7.8195722 16.953707 7 15 7 z M 15 9 C 17.754545 9 20 11.245455 20 14 L 20 18 C 20 20.754545 17.754545 23 15 23 C 12.245455 23 10 20.754545 10 18 L 10 14 C 10 11.245455 12.245455 9 15 9 z" color="#000" overflow="visible" enable-background="accumulate" font-family="Bitstream Vera Sans"/>
</svg>