<svg xmlns="http://www.w3.org/2000/svg" viewBox="0 0 32 32" enable-background="new 0 0 32 32">
    <path style="text-indent:0;text-align:start;line-height:normal;text-transform:none;block-progression:tb;-inkscape-font-specification:Bitstream Vera Sans" d="M 10 4 C 9.4777778 4 8.9395305 4.1854695 8.5625 4.5625 C 8.1854695 4.9395305 8 5.4777778 8 6 L 8 26 C 8 26.522222 8.1854695 27.060469 8.5625 27.4375 C 8.9395305 27.814531 9.4777778 28 10 28 L 22 28 C 22.522222 28 23.060469 27.814531 23.4375 27.4375 C 23.814531 27.060469 24 26.522222 24 26 L 24 6 C 24 5.4777778 23.814531 4.9395305 23.4375 4.5625 C 23.060469 4.1854695 22.522222 4 22 4 L 10 4 z M 10 6 L 22 6 L 22 26 L 10 26 L 10 6 z M 14 23 L 14 25 L 18 25 L 18 23 L 14 23 z" color="#000" overflow="visible" enable-background="accumulate" font-family="Bitstream Vera Sans"/>
</svg>