<svg xmlns="http://www.w3.org/2000/svg" viewBox="0 0 32 32" enable-background="new 0 0 32 32">
    <path style="text-indent:0;text-align:start;line-height:normal;text-transform:none;block-progression:tb;-inkscape-font-specification:Bitstream Vera Sans" d="M 5 5 L 5 6 L 5 26 L 5 27 L 6 27 L 26 27 L 27 27 L 27 26 L 27 6 L 27 5 L 26 5 L 6 5 L 5 5 z M 7 7 L 25 7 L 25 25 L 7 25 L 7 7 z M 14.21875 9.125 L 12.375 9.875 L 13.0625 11.59375 C 12.483506 11.981902 11.983735 12.486438 11.59375 13.0625 L 9.875 12.375 L 9.125 14.21875 L 10.8125 14.875 C 10.731195 15.241033 10.6875 15.610291 10.6875 16 C 10.6875 16.388399 10.731842 16.759435 10.8125 17.125 L 9.125 17.78125 L 9.875 19.625 L 11.59375 18.9375 C 11.984558 19.520455 12.479545 20.015442 13.0625 20.40625 L 12.375 22.125 L 14.21875 22.875 L 14.875 21.1875 C 15.240565 21.268158 15.611601 21.3125 16 21.3125 C 16.388399 21.3125 16.759435 21.268158 17.125 21.1875 L 17.78125 22.875 L 19.625 22.125 L 18.9375 20.40625 C 19.520455 20.015442 20.015442 19.520455 20.40625 18.9375 L 22.125 19.625 L 22.875 17.78125 L 21.1875 17.125 C 21.268158 16.759435 21.3125 16.388399 21.3125 16 C 21.3125 15.611601 21.268158 15.240565 21.1875 14.875 L 22.875 14.21875 L 22.125 12.375 L 20.40625 13.0625 C 20.015442 12.479545 19.520455 11.984558 18.9375 11.59375 L 19.625 9.875 L 17.78125 9.125 L 17.125 10.8125 C 16.759435 10.731842 16.388399 10.6875 16 10.6875 C 15.611601 10.6875 15.240565 10.731842 14.875 10.8125 L 14.21875 9.125 z M 16 12.6875 C 17.834385 12.6875 19.3125 14.165615 19.3125 16 C 19.3125 17.834385 17.834385 19.3125 16 19.3125 C 14.165615 19.3125 12.6875 17.834385 12.6875 16 C 12.6875 14.165615 14.165615 12.6875 16 12.6875 z"/>
</svg>