<svg xmlns="http://www.w3.org/2000/svg" viewBox="0 0 32 32" enable-background="new 0 0 32 32">
    <path style="text-indent:0;text-align:start;line-height:normal;text-transform:none;block-progression:tb;-inkscape-font-specification:Bitstream Vera Sans" d="M 14.5 4 C 11.466667 4 9 6.4666667 9 9.5 L 9 14 L 9 17 L 9 19 L 9 28 L 11 28 L 11 23.46875 C 12.060715 24.41834 13.45785 25 15 25 L 17 25 C 20.32381 25 23 22.32381 23 19 C 23 16.493293 21.486613 14.337371 19.3125 13.4375 C 20.345102 12.437153 21 11.048264 21 9.5 C 21 6.4666667 18.533333 4 15.5 4 L 14.5 4 z M 14.5 6 L 15.5 6 C 17.466667 6 19 7.5333333 19 9.5 C 19 11.466667 17.466667 13 15.5 13 L 13 13 L 13 15 L 17 15 C 19.27619 15 21 16.72381 21 19 C 21 21.27619 19.27619 23 17 23 L 15 23 C 12.72381 23 11 21.27619 11 19 L 11 17 L 11 14 L 11 9.5 C 11 7.5333333 12.533333 6 14.5 6 z" color="#000" overflow="visible" enable-background="accumulate" font-family="Bitstream Vera Sans"/>
</svg>