<svg xmlns="http://www.w3.org/2000/svg" viewBox="0 0 32 32" enable-background="new 0 0 32 32">
    <path style="text-indent:0;text-align:start;line-height:normal;text-transform:none;block-progression:tb;-inkscape-font-specification:Bitstream Vera Sans" d="M 16 4 C 13.973077 4 12.149629 4.2405187 10.75 4.65625 C 10.050186 4.8641157 9.4639772 5.1121864 8.96875 5.46875 C 8.4735228 5.8253136 8 6.3631944 8 7.09375 L 8 12 L 8 13 L 8 23.90625 C 8 24.635172 8.3358128 25.279139 8.8125 25.78125 C 9.2891872 26.283361 9.9072824 26.680225 10.625 27 C 12.060435 27.63955 13.930342 28 16 28 C 18.069658 28 19.939565 27.63955 21.375 27 C 22.092718 26.680225 22.710813 26.283361 23.1875 25.78125 C 23.664187 25.279139 24 24.635172 24 23.90625 L 24 13 L 24 12 L 24 7.09375 C 24 6.3631944 23.526477 5.8253136 23.03125 5.46875 C 22.536023 5.1121864 21.949814 4.8641157 21.25 4.65625 C 19.850371 4.2405187 18.026923 4 16 4 z M 16 6 C 17.873077 6 19.562129 6.2282313 20.6875 6.5625 C 21.250186 6.7296343 21.667102 6.9128136 21.875 7.0625 C 21.978949 7.1373432 21.994737 7.1820788 22 7.1875 L 22 12 L 22 13 C 22 13.554545 21.554545 14 21 14 L 11 14 C 10.445455 14 10 13.554545 10 13 L 10 12 L 10 7.1875 C 10.005263 7.1820788 10.021051 7.1373432 10.125 7.0625 C 10.332898 6.9128136 10.749814 6.7296343 11.3125 6.5625 C 12.437871 6.2282313 14.126923 6 16 6 z M 10 15.8125 C 10.315787 15.926733 10.646913 16 11 16 L 21 16 C 21.353087 16 21.684213 15.926733 22 15.8125 L 22 23.90625 C 22 24.027328 21.94519 24.167736 21.71875 24.40625 C 21.492312 24.644764 21.107282 24.944775 20.5625 25.1875 C 19.472935 25.67295 17.830342 26 16 26 C 14.169658 26 12.527065 25.67295 11.4375 25.1875 C 10.892718 24.944775 10.507688 24.644764 10.28125 24.40625 C 10.054812 24.167736 10 24.027328 10 23.90625 L 10 15.8125 z M 11 17 L 11 19 L 13 19 L 13 17 L 11 17 z M 14 17 L 14 19 L 18 19 L 18 17 L 14 17 z M 19 17 L 19 19 L 21 19 L 21 17 L 19 17 z" color="#000" overflow="visible" enable-background="accumulate" font-family="Bitstream Vera Sans"/>
</svg>