<svg xmlns="http://www.w3.org/2000/svg" viewBox="0 0 32 32" enable-background="new 0 0 32 32">
    <path style="text-indent:0;text-align:start;line-height:normal;text-transform:none;block-progression:tb;-inkscape-font-specification:Bitstream Vera Sans" d="M 6 5 C 4.3555556 5 2.797573 6.0447811 2.25 7.6875 C 1.6254045 9.5612865 1 12.191892 1 16 C 1 19.808108 1.6254045 22.438714 2.25 24.3125 C 2.797573 25.955219 4.3555556 27 6 27 L 9 27 C 9.5222222 27 10.060469 26.814531 10.4375 26.4375 C 10.814531 26.060469 11 25.522222 11 25 L 11 21 C 11 20.477778 10.814531 19.939531 10.4375 19.5625 C 10.060469 19.185469 9.5222222 19 9 19 L 7 19 C 6.7971799 18.46954 6.5 17.549805 6.5 16 C 6.5 14.450195 6.7971799 13.53046 7 13 L 9 13 C 9.5222222 13 10.060469 12.814531 10.4375 12.4375 C 10.814531 12.060469 11 11.522222 11 11 L 11 7 C 11 6.4777778 10.814531 5.9395305 10.4375 5.5625 C 10.060469 5.1854695 9.5222222 5 9 5 L 6 5 z M 26 5 C 24.305239 5 22.825637 6.0845669 22.28125 7.65625 C 22.27625 7.67062 22.25482 7.673046 22.25 7.6875 C 21.616006 9.49204 21 12.208148 21 16 C 21 19.808108 21.625405 22.438714 22.25 24.3125 C 22.797573 25.955219 24.355556 27 26 27 L 29 27 C 29.522222 27 30.060469 26.814531 30.4375 26.4375 C 30.814531 26.060469 31 25.522222 31 25 L 31 21 C 31 20.477778 30.814531 19.939531 30.4375 19.5625 C 30.060469 19.185469 29.522222 19 29 19 L 27 19 C 26.79718 18.46954 26.5 17.549805 26.5 16 C 26.5 14.450195 26.79718 13.53046 27 13 L 29 13 C 29.522222 13 30.060469 12.814531 30.4375 12.4375 C 30.814531 12.060469 31 11.522222 31 11 L 31 7 C 31 6.4777778 30.814531 5.9395305 30.4375 5.5625 C 30.060469 5.1854695 29.522222 5 29 5 L 26 5 z M 6 7 L 9 7 L 9 11 L 6.3125 11 L 5.6875 11 L 5.40625 11.5625 C 5.40625 11.5625 4.5 13.377778 4.5 16 C 4.5 18.622222 5.40625 20.4375 5.40625 20.4375 L 5.6875 21 L 6.3125 21 L 9 21 L 9 25 L 6 25 C 5.2444444 25 4.408677 24.444781 4.15625 23.6875 C 3.5808455 21.961286 3 19.591892 3 16 C 3 12.408108 3.5808455 10.038714 4.15625 8.3125 C 4.408677 7.5552189 5.2444444 7 6 7 z M 26 7 L 29 7 L 29 11 L 26.3125 11 L 25.6875 11 L 25.40625 11.5625 C 25.40625 11.5625 24.5 13.377778 24.5 16 C 24.5 18.622222 25.40625 20.4375 25.40625 20.4375 L 25.6875 21 L 26.3125 21 L 29 21 L 29 25 L 26 25 C 25.244444 25 24.408677 24.444781 24.15625 23.6875 C 23.580845 21.961286 23 19.591892 23 16 C 23 12.408108 23.593116 9.9392957 24.15625 8.34375 L 24.15625 8.3125 C 24.424488 7.5077847 25.110256 7 26 7 z M 15.5 11.28125 L 14.09375 12.71875 L 16.375 15 L 10 15 L 10 17 L 16.375 17 L 14.09375 19.28125 L 15.5 20.71875 L 19.5 16.71875 L 20.21875 16 L 19.5 15.28125 L 15.5 11.28125 z" color="#000" overflow="visible" enable-background="accumulate" font-family="Bitstream Vera Sans"/>
</svg>