<svg xmlns="http://www.w3.org/2000/svg" viewBox="0 0 32 32" enable-background="new 0 0 32 32">
    <path style="text-indent:0;text-align:start;line-height:normal;text-transform:none;block-progression:tb;-inkscape-font-specification:Bitstream Vera Sans" d="M 9 2 L 9 5 L 9 6 L 9 7 L 9 25 C 9 25.522222 9.1854695 26.060469 9.5625 26.4375 C 9.9395305 26.814531 10.477778 27 11 27 L 21 27 C 21.522222 27 22.060469 26.814531 22.4375 26.4375 C 22.814531 26.060469 23 25.522222 23 25 L 23 7 C 23 6.4777778 22.814531 5.9395305 22.4375 5.5625 C 22.060469 5.1854695 21.522222 5 21 5 L 11 5 L 11 2 L 9 2 z M 11 7 L 21 7 L 21 11 L 11 11 L 11 7 z M 11 13 L 21 13 L 21 25 L 11 25 L 11 13 z M 12 15 L 12 17 L 14 17 L 14 15 L 12 15 z M 15 15 L 15 17 L 17 17 L 17 15 L 15 15 z M 18 15 L 18 17 L 20 17 L 20 15 L 18 15 z M 12 18 L 12 20 L 14 20 L 14 18 L 12 18 z M 15 18 L 15 20 L 17 20 L 17 18 L 15 18 z M 18 18 L 18 20 L 20 20 L 20 18 L 18 18 z M 12 21 L 12 23 L 14 23 L 14 21 L 12 21 z M 15 21 L 15 23 L 17 23 L 17 21 L 15 21 z M 18 21 L 18 23 L 20 23 L 20 21 L 18 21 z"/>
</svg>