<svg xmlns="http://www.w3.org/2000/svg" viewBox="0 0 32 32" enable-background="new 0 0 32 32">
    <path style="text-indent:0;text-align:start;line-height:normal;text-transform:none;block-progression:tb;-inkscape-font-specification:Bitstream Vera Sans" d="M 16 4 C 13.802706 4 12 5.8027056 12 8 C 12 9.036325 12.408235 9.9744483 13.0625 10.6875 C 12.655347 10.885602 12.295311 11.133808 11.9375 11.40625 C 11.649207 9.4855271 9.996811 8 8 8 C 5.8027056 8 4 9.8027058 4 12 C 4 13.067486 4.4355108 14.030234 5.125 14.75 C 4.8663066 14.89195 4.6081164 15.042037 4.375 15.21875 C 2.9326399 16.313409 2 18.053409 2 20 L 4 20 C 4 18.690591 4.6301101 17.543841 5.59375 16.8125 C 6.2658957 16.302983 7.0882222 16 8 16 C 8.6208547 16 9.2042554 16.169559 9.75 16.4375 L 10.84375 16.96875 L 11.15625 15.78125 C 11.704184 13.616994 13.653917 12 16 12 C 18.343544 12 20.293301 13.589007 20.84375 15.75 L 21.15625 16.96875 L 22.25 16.40625 C 22.788347 16.142354 23.374437 16 24 16 C 26.220375 16 28 17.779625 28 20 L 30 20 C 30 17.745203 28.724706 15.774742 26.875 14.75 C 27.564489 14.030234 28 13.067486 28 12 C 28 9.8027057 26.197294 8 24 8 C 22.003189 8 20.350793 9.485527 20.0625 11.40625 C 19.704721 11.133876 19.344681 10.885499 18.9375 10.6875 C 19.591765 9.9744483 20 9.036325 20 8 C 20 5.8027056 18.197294 4 16 4 z M 16 6 C 17.116414 6 18 6.883586 18 8 C 18 9.116414 17.116414 10 16 10 C 14.883586 10 14 9.116414 14 8 C 14 6.883586 14.883586 6 16 6 z M 8 10 C 9.116414 10 10 10.883586 10 12 C 10 13.116414 9.116414 14 8 14 C 6.883586 14 6 13.116414 6 12 C 6 10.883586 6.883586 10 8 10 z M 24 10 C 25.116414 10 26 10.883586 26 12 C 26 13.116414 25.116414 14 24 14 C 22.883586 14 22 13.116414 22 12 C 22 10.883586 22.883586 10 24 10 z M 16 16 C 13.802706 16 12 17.802706 12 20 C 12 21.067486 12.435511 22.030234 13.125 22.75 C 11.275294 23.774742 10 25.745203 10 28 L 12 28 C 12 25.779625 13.779625 24 16 24 C 18.220375 24 20 25.779625 20 28 L 22 28 C 22 25.745203 20.724706 23.774742 18.875 22.75 C 19.564489 22.030234 20 21.067486 20 20 C 20 17.802706 18.197294 16 16 16 z M 16 18 C 17.116414 18 18 18.883586 18 20 C 18 21.116414 17.116414 22 16 22 C 14.883586 22 14 21.116414 14 20 C 14 18.883586 14.883586 18 16 18 z" color="#000" overflow="visible" enable-background="accumulate" font-family="Bitstream Vera Sans"/>
</svg>