<svg xmlns="http://www.w3.org/2000/svg" viewBox="0 0 32 32" enable-background="new 0 0 32 32">
    <path style="text-indent:0;text-align:start;line-height:normal;text-transform:none;block-progression:tb;-inkscape-font-specification:Bitstream Vera Sans" d="M 16 5 C 13.923448 5 12.125323 5.9954526 10.84375 7.4375 C 10.252726 7.2349606 9.6702027 7 9 7 C 5.6983746 7 3 9.6983746 3 13 C 3 15.950299 5.1856231 18.320538 8 18.8125 L 8 26 L 8 27 L 9 27 L 23 27 L 24 27 L 24 26 L 24 18.8125 C 26.814377 18.320538 29 15.950299 29 13 C 29 9.6983746 26.301625 7 23 7 C 22.329797 7 21.747274 7.2349606 21.15625 7.4375 C 19.874677 5.9954526 18.076552 5 16 5 z M 16 7 C 17.675989 7 19.152281 7.8328051 20.0625 9.09375 L 20.53125 9.75 L 21.28125 9.40625 C 21.814648 9.1526806 22.394326 9 23 9 C 25.220375 9 27 10.779625 27 13 C 27 15.220375 25.220375 17 23 17 C 21.785364 17 20.703302 16.473299 19.96875 15.625 L 18.46875 16.9375 C 19.358894 17.965485 20.603696 18.67113 22 18.90625 L 22 25 L 10 25 L 10 18.90625 C 10.634204 18.799571 11.228579 18.603547 11.78125 18.3125 L 10.875 16.53125 C 10.319277 16.823904 9.6761169 17 9 17 C 6.7796254 17 5 15.220375 5 13 C 5 10.779625 6.7796254 9 9 9 C 9.6056736 9 10.185352 9.1526806 10.71875 9.40625 L 11.46875 9.75 L 11.9375 9.09375 C 12.847719 7.8328051 14.324011 7 16 7 z" color="#000" overflow="visible" enable-background="accumulate" font-family="Bitstream Vera Sans"/>
</svg>