<svg xmlns="http://www.w3.org/2000/svg" viewBox="0 0 32 32" enable-background="new 0 0 32 32">
    <path style="text-indent:0;text-align:start;line-height:normal;text-transform:none;block-progression:tb;-inkscape-font-specification:Bitstream Vera Sans" d="M 9.75 1.84375 L 8.65625 3.78125 L 6.46875 3.96875 L 7.96875 5.59375 L 7.5 7.71875 L 9.46875 6.8125 L 11.375 7.9375 L 11.125 5.75 L 12.75 4.3125 L 10.59375 3.875 L 9.75 1.84375 z M 22.25 1.96875 L 22 3.0625 L 20.9375 3.46875 L 21.90625 4.0625 L 22 5.15625 L 22.8125 4.4375 L 23.90625 4.6875 L 23.46875 3.65625 L 24.0625 2.71875 L 22.9375 2.84375 L 22.25 1.96875 z M 27.34375 4.28125 L 26.28125 5.84375 L 24.40625 5.875 L 25.5625 7.34375 L 25 9.15625 L 26.78125 8.53125 L 28.3125 9.625 L 28.25 7.71875 L 29.75 6.59375 L 27.9375 6.09375 L 27.34375 4.28125 z M 16 5 C 15.061801 5 14.143721 5.132708 13.28125 5.375 L 13.84375 7.3125 C 14.533279 7.118792 15.246199 7 16 7 C 20.430666 7 24 10.569334 24 15 L 24 16.40625 C 23.957471 16.389962 23.918188 16.358605 23.875 16.34375 C 23.550582 14.464617 21.967036 13 20 13 C 19.43497 13 19 12.56503 19 12 L 19 11 L 17 11 L 17 12 C 17 12.56503 16.56503 13 16 13 L 12 13 C 10.032964 13 8.4494178 14.464617 8.125 16.34375 C 8.081812 16.358605 8.0425286 16.389962 8 16.40625 L 8 15 C 8 12.943831 8.7620142 11.072244 10.03125 9.65625 L 8.5625 8.34375 C 6.9777358 10.111756 6 12.442169 6 15 L 6 18.59375 L 6.03125 18.59375 C 6.009919 18.726779 6 18.858143 6 19 C 6 20.308554 6.9462217 21.250796 8.125 21.65625 C 8.4777871 25.740694 11.826713 29 16 29 C 20.173287 29 23.522213 25.740694 23.875 21.65625 C 25.053778 21.250796 26 20.308554 26 19 C 26 18.858143 25.990081 18.726779 25.96875 18.59375 L 26 18.59375 L 26 15 C 26 9.4886661 21.511334 5 16 5 z M 4 6.6875 L 3.6875 8.0625 L 2.375 8.59375 L 3.59375 9.3125 L 3.6875 10.75 L 4.75 9.8125 L 6.125 10.15625 L 5.5625 8.84375 L 6.3125 7.65625 L 4.90625 7.78125 L 4 6.6875 z M 18 14.1875 C 18.534331 14.674972 19.2274 15 20 15 C 21.116666 15 22 15.883334 22 17 L 22 18 L 23 18 C 23.56503 18 24 18.43497 24 19 C 24 19.56503 23.56503 20 23 20 L 22 20 L 22 21 C 22 24.325562 19.325562 27 16 27 C 12.674438 27 10 24.325562 10 21 L 10 20 L 9 20 C 8.4349698 20 8 19.56503 8 19 C 8 18.43497 8.4349698 18 9 18 L 10 18 L 10 17 C 10 15.883334 10.883334 15 12 15 L 16 15 C 16.7726 15 17.465669 14.674972 18 14.1875 z M 14 18 C 13.447715 18 13 18.447715 13 19 C 13 19.552285 13.447715 20 14 20 C 14.552285 20 15 19.552285 15 19 C 15 18.447715 14.552285 18 14 18 z M 18.5 18 C 17.671573 18 17 18.671573 17 19.5 C 17 20.328427 17.671573 21 18.5 21 C 19.328427 21 20 20.328427 20 19.5 C 20 18.671573 19.328427 18 18.5 18 z" color="#000" overflow="visible" enable-background="accumulate" font-family="Bitstream Vera Sans"/>
</svg>