<svg xmlns="http://www.w3.org/2000/svg" viewBox="0 0 32 32" enable-background="new 0 0 32 32">
    <path style="text-indent:0;text-align:start;line-height:normal;text-transform:none;block-progression:tb;-inkscape-font-specification:Bitstream Vera Sans" d="M 11.5 0.9375 C 10.193972 1.7031416 9.472138 2.6453403 9.09375 3.40625 C 9.0111173 3.572418 9.0530111 3.5659274 9 3.71875 C 8.845016 3.6911411 8.8668139 3.6653722 8.6875 3.65625 C 7.8383104 3.6130493 6.6555217 3.7938438 5.34375 4.5625 L 6.375 6.28125 C 7.3722283 5.6969062 8.1111896 5.6317007 8.59375 5.65625 C 9.0763104 5.6807993 9.1875 5.75 9.1875 5.75 A 1.0001 1.0001 0 0 0 10.6875 4.90625 C 10.6875 4.90625 10.65839 4.7480903 10.875 4.3125 C 11.091612 3.8769097 11.541278 3.2678584 12.53125 2.6875 L 11.5 0.9375 z M 22.40625 3.84375 L 21.625 5.6875 C 22.688331 6.1396964 23.169261 6.6604135 23.4375 7.0625 C 23.705739 7.4645865 23.71875 7.625 23.71875 7.625 A 1.0001 1.0001 0 0 0 25.28125 8.3125 C 25.28125 8.3125 25.427476 8.2108171 25.90625 8.125 C 26.385024 8.039183 27.131651 8.0199389 28.1875 8.46875 L 28.96875 6.625 C 27.575599 6.0328111 26.367726 6.0063171 25.53125 6.15625 C 25.366413 6.185796 25.391988 6.2070571 25.25 6.25 C 25.180889 6.1125909 25.22194 6.1140618 25.125 5.96875 C 24.653239 5.2615865 23.804919 4.4385536 22.40625 3.84375 z M 15 5 C 12.603032 5 10.379062 5.8382051 8.65625 7.25 L 9.9375 8.8125 C 11.316688 7.6822949 13.072968 7 15 7 C 19.430666 7 23 10.569334 23 15 L 23 16.40625 C 22.957471 16.389962 22.918188 16.358605 22.875 16.34375 C 22.550582 14.464617 20.967036 13 19 13 C 18.43497 13 18 12.56503 18 12 L 18 11 L 16 11 L 16 12 C 16 12.56503 15.56503 13 15 13 L 11 13 C 9.0329636 13 7.4494178 14.464617 7.125 16.34375 C 7.081812 16.358605 7.0425286 16.389962 7 16.40625 L 7 15 C 7 14.444416 7.049004 13.895276 7.15625 13.375 L 5.21875 12.96875 C 5.0839959 13.622474 5 14.309584 5 15 L 5 18.59375 L 5.03125 18.59375 C 5.009919 18.726779 5 18.858143 5 19 C 5 20.308554 5.9462217 21.250796 7.125 21.65625 C 7.4777871 25.740694 10.826713 29 15 29 C 19.173287 29 22.522213 25.740694 22.875 21.65625 C 24.053778 21.250796 25 20.308554 25 19 C 25 18.858143 24.990081 18.726779 24.96875 18.59375 L 25 18.59375 L 25 15 C 25 9.4886661 20.511334 5 15 5 z M 2.71875 7.25 L 1.9375 9.09375 C 3.0008311 9.5459464 3.5130111 10.097913 3.78125 10.5 C 4.0494889 10.902087 4.0625 11.0625 4.0625 11.0625 A 1.0001 1.0001 0 0 0 5.625 11.71875 C 5.625 11.71875 5.7399763 11.617067 6.21875 11.53125 C 6.6975237 11.445433 7.4441515 11.426189 8.5 11.875 L 9.28125 10.03125 C 7.8880985 9.4390611 6.7114763 9.4125671 5.875 9.5625 C 5.6877508 9.5960632 5.7198491 9.6374768 5.5625 9.6875 C 5.4903588 9.5411758 5.541501 9.5308961 5.4375 9.375 C 4.9657389 8.6678365 4.1174189 7.8448036 2.71875 7.25 z M 17 14.1875 C 17.534331 14.674972 18.2274 15 19 15 C 20.116666 15 21 15.883334 21 17 L 21 18 L 22 18 C 22.56503 18 23 18.43497 23 19 C 23 19.56503 22.56503 20 22 20 L 21 20 L 21 21 C 21 24.325562 18.325562 27 15 27 C 11.674438 27 9 24.325562 9 21 L 9 20 L 8 20 C 7.4349698 20 7 19.56503 7 19 C 7 18.43497 7.4349698 18 8 18 L 9 18 L 9 17 C 9 15.883334 9.8833339 15 11 15 L 15 15 C 15.7726 15 16.465669 14.674972 17 14.1875 z M 13 18 C 12.447715 18 12 18.447715 12 19 C 12 19.552285 12.447715 20 13 20 C 13.552285 20 14 19.552285 14 19 C 14 18.447715 13.552285 18 13 18 z M 17.5 18 C 16.671573 18 16 18.671573 16 19.5 C 16 20.328427 16.671573 21 17.5 21 C 18.328427 21 19 20.328427 19 19.5 C 19 18.671573 18.328427 18 17.5 18 z" color="#000" overflow="visible" enable-background="accumulate" font-family="Bitstream Vera Sans"/>
</svg>