<svg xmlns="http://www.w3.org/2000/svg" viewBox="0 0 32 32" enable-background="new 0 0 32 32">
    <path style="text-indent:0;text-align:start;line-height:normal;text-transform:none;block-progression:tb;-inkscape-font-specification:Bitstream Vera Sans" d="M 16 5 C 12.145852 5 9 8.1458513 9 12 C 9 14.408843 10.23116 16.55212 12.09375 17.8125 C 8.5266131 19.342333 6 22.881262 6 27 L 8 27 C 8 22.569334 11.569334 19 16 19 C 18.146049 19 20.062946 19.878531 21.5 21.25 L 17 25.75 L 16.78125 25.96875 L 16.71875 26.28125 L 16.03125 29.8125 L 15.71875 31.28125 L 17.1875 30.96875 L 20.71875 30.28125 L 21.03125 30.21875 L 21.25 30 L 31.125 20.125 C 32.286959 18.963041 32.286959 17.036959 31.125 15.875 C 30.544021 15.294021 29.769064 15 29 15 C 28.230936 15 27.455979 15.294021 26.875 15.875 L 22.9375 19.8125 C 22.067689 18.974622 21.033404 18.294768 19.90625 17.8125 C 21.76884 16.55212 23 14.408843 23 12 C 23 8.1458513 19.854148 5 16 5 z M 16 7 C 18.773268 7 21 9.2267317 21 12 C 21 14.773268 18.773268 17 16 17 C 13.226732 17 11 14.773268 11 12 C 11 9.2267317 13.226732 7 16 7 z M 29 17 C 29.252936 17 29.519729 17.08223 29.71875 17.28125 C 30.105872 17.668372 30.115881 18.257936 29.75 18.65625 L 29.71875 18.6875 L 20.03125 28.375 L 18.25 28.75 L 18.625 26.96875 L 28.3125 17.28125 C 28.511521 17.082229 28.747064 17 29 17 z" color="#000" overflow="visible" enable-background="accumulate" font-family="Bitstream Vera Sans"/>
</svg>