<svg xmlns="http://www.w3.org/2000/svg" viewBox="0 0 32 32" enable-background="new 0 0 32 32">
    <path style="text-indent:0;text-align:start;line-height:normal;text-transform:none;block-progression:tb;-inkscape-font-specification:Bitstream Vera Sans" d="M 16 5 C 12.145852 5 9 8.1458513 9 12 C 9 14.408843 10.23116 16.55212 12.09375 17.8125 C 8.5266131 19.342333 6 22.881262 6 27 L 8 27 C 8 22.569334 11.569334 19 16 19 C 18.141475 19 20.068236 19.853895 21.5 21.21875 C 21.178757 21.915963 21 22.685287 21 23.5 C 21 24.649978 21.35949 25.708651 21.96875 26.59375 L 18.28125 30.28125 L 19.71875 31.71875 L 23.40625 28.03125 C 24.291349 28.64051 25.350022 29 26.5 29 C 29.525721 29 32 26.525721 32 23.5 C 32 20.474279 29.525721 18 26.5 18 C 25.018657 18 23.678847 18.602014 22.6875 19.5625 C 21.880017 18.837471 20.950327 18.246928 19.9375 17.8125 C 21.788482 16.550359 23 14.399901 23 12 C 23 8.1458513 19.854148 5 16 5 z M 16 7 C 18.773268 7 21 9.2267317 21 12 C 21 14.773268 18.773268 17 16 17 C 13.226732 17 11 14.773268 11 12 C 11 9.2267317 13.226732 7 16 7 z M 26.5 20 C 28.444841 20 30 21.555159 30 23.5 C 30 25.444841 28.444841 27 26.5 27 C 24.555159 27 23 25.444841 23 23.5 C 23 21.555159 24.555159 20 26.5 20 z" color="#000" overflow="visible" enable-background="accumulate" font-family="Bitstream Vera Sans"/>
</svg>