<svg xmlns="http://www.w3.org/2000/svg" viewBox="0 0 32 32" enable-background="new 0 0 32 32">
    <path style="text-indent:0;text-align:start;line-height:normal;text-transform:none;block-progression:tb;-inkscape-font-specification:Bitstream Vera Sans" d="M 13 7 L 13 8 L 13 8.59375 C 9.9286893 9.6344423 7.566163 12.145566 7.09375 15.28125 C 5.7655204 15.729115 4.630875 16.292298 3.75 16.96875 C 2.732623 17.750026 2 18.789267 2 20 C 2 21.041572 2.551787 21.96734 3.34375 22.6875 C 4.135713 23.40766 5.1817204 23.985722 6.4375 24.46875 C 8.9490593 25.434806 12.306054 26 16 26 C 19.693946 26 23.050941 25.434806 25.5625 24.46875 C 26.81828 23.985722 27.864287 23.40766 28.65625 22.6875 C 29.448213 21.96734 30 21.041572 30 20 C 30 18.789267 29.267377 17.750026 28.25 16.96875 C 27.369125 16.292298 26.23448 15.729115 24.90625 15.28125 C 24.433837 12.145566 22.071311 9.6344423 19 8.59375 L 19 8 L 19 7 L 18 7 L 14 7 L 13 7 z M 15 9 L 17 9 L 17 9.25 L 17 10.03125 L 17 12 L 19 12 L 19 10.625 C 21.383823 11.661324 23 13.885864 23 16.4375 L 23 18.1875 C 22.96859 18.22222 22.95067 18.24961 22.875 18.3125 C 22.647982 18.501175 22.242867 18.778149 21.65625 19.03125 C 20.483015 19.537452 18.608782 20 16 20 C 13.391218 20 11.516985 19.537452 10.34375 19.03125 C 9.7571326 18.778149 9.3520177 18.501175 9.125 18.3125 C 9.0493274 18.249608 9.0314058 18.22222 9 18.1875 L 9 16.4375 C 9 13.885864 10.616177 11.661324 13 10.625 L 13 12 L 15 12 L 15 10.03125 L 15 9.25 L 15 9 z M 14 14 L 14 17 L 16 18 L 18 17 L 18 14 L 14 14 z M 7 17.5 L 7 18.4375 C 7 18.868231 7.1639723 19.075708 7.3125 19.28125 C 7.4610277 19.486792 7.6337432 19.669213 7.84375 19.84375 C 8.2637636 20.192825 8.8314924 20.528351 9.5625 20.84375 C 11.024515 21.474548 13.149782 22 16 22 C 18.850218 22 20.975485 21.474548 22.4375 20.84375 C 23.168508 20.528351 23.736236 20.192825 24.15625 19.84375 C 24.366257 19.669213 24.538972 19.486792 24.6875 19.28125 C 24.836028 19.075708 25 18.868231 25 18.4375 L 25 17.5 C 25.837041 17.831236 26.541758 18.186604 27.03125 18.5625 C 27.760123 19.122224 28 19.607733 28 20 C 28 20.338928 27.836162 20.742566 27.3125 21.21875 C 26.788838 21.694934 25.94047 22.171903 24.84375 22.59375 C 22.650309 23.437444 19.486054 24 16 24 C 12.513946 24 9.3496907 23.437444 7.15625 22.59375 C 6.0595296 22.171903 5.211162 21.694934 4.6875 21.21875 C 4.163838 20.742566 4 20.338928 4 20 C 4 19.607733 4.239877 19.122224 4.96875 18.5625 C 5.4582419 18.186604 6.162959 17.831236 7 17.5 z" color="#000" overflow="visible" enable-background="accumulate" font-family="Bitstream Vera Sans"/>
</svg>