<svg xmlns="http://www.w3.org/2000/svg" viewBox="0 0 32 32" enable-background="new 0 0 32 32">
    <path style="text-indent:0;text-align:start;line-height:normal;text-transform:none;block-progression:tb;-inkscape-font-specification:Bitstream Vera Sans" d="M 13 6 C 12.399973 6 11.935444 6.2016932 11.3125 6.59375 C 10.689556 6.9858068 9.9842291 7.5906102 9.34375 8.46875 C 8.4064477 9.7538546 7.5915326 11.629924 7.21875 14.25 C 5.8374021 14.705153 4.6577719 15.271643 3.75 15.96875 C 2.732623 16.750026 2 17.789267 2 19 C 2 20.041572 2.551787 20.96734 3.34375 21.6875 C 4.135713 22.40766 5.1817204 22.985722 6.4375 23.46875 C 8.9490593 24.434806 12.306054 25 16 25 C 19.693946 25 23.050941 24.434806 25.5625 23.46875 C 26.81828 22.985722 27.864287 22.40766 28.65625 21.6875 C 29.448213 20.96734 30 20.041572 30 19 C 30 17.789267 29.267377 16.750026 28.25 15.96875 C 27.342228 15.271643 26.162598 14.705153 24.78125 14.25 C 24.407724 11.624431 23.590829 9.7524 22.65625 8.46875 C 22.018001 7.5921109 21.347515 6.9825512 20.71875 6.59375 C 20.089985 6.2049488 19.583669 6 19 6 C 18.413219 6 17.988644 6.2510004 17.65625 6.5 C 17.323856 6.7489996 17.065983 7.0314517 16.8125 7.28125 C 16.559017 7.5310483 16.324846 7.7491431 16.15625 7.875 C 16.088163 7.9258268 16.034726 7.9508528 16 7.96875 C 15.965563 7.9509445 15.914126 7.9265541 15.84375 7.875 C 15.669486 7.7473422 15.443544 7.5295351 15.1875 7.28125 C 14.931456 7.0329649 14.638305 6.745999 14.3125 6.5 C 13.986695 6.254001 13.5938 6 13 6 z M 12.9375 8 C 12.964744 8.015125 13.039575 8.0605 13.125 8.125 C 13.295851 8.254001 13.521669 8.4670351 13.78125 8.71875 C 14.040831 8.9704649 14.318607 9.2526578 14.65625 9.5 C 14.993893 9.7473422 15.413961 10 16 10 C 16.586039 10 17.010002 9.7491431 17.34375 9.5 C 17.677498 9.2508569 17.964858 8.9689517 18.21875 8.71875 C 18.472642 8.4685483 18.7068 8.2510004 18.875 8.125 C 18.948844 8.0696828 18.972311 8.0171917 19 8 C 18.898331 8 19.25714 8.034457 19.65625 8.28125 C 20.05536 8.5280426 20.571249 8.9502641 21.0625 9.625 C 22.023179 10.944498 22.927316 13.317637 22.96875 17.21875 C 22.94045 17.24906 22.95385 17.27069 22.90625 17.3125 C 22.698832 17.494676 22.315658 17.745807 21.75 18 C 20.618685 18.508387 18.744994 19 16 19 C 13.250292 19 11.378186 18.529335 10.25 18.03125 C 9.6859068 17.782208 9.3265241 17.523279 9.125 17.34375 C 9.066449 17.29159 9.04972 17.25782 9.03125 17.21875 C 9.073371 13.345806 9.9993555 10.985355 10.96875 9.65625 C 11.464521 8.9765148 11.975131 8.532912 12.375 8.28125 C 12.654908 8.1050866 12.853226 8.0245536 12.9375 8 z M 7.03125 16.46875 C 7.0188839 16.788633 7 17.099712 7 17.4375 C 7 18.213083 7.3777741 18.484311 7.78125 18.84375 C 8.1847259 19.203189 8.7175932 19.525917 9.4375 19.84375 C 10.877314 20.479415 13.021708 21 16 21 C 18.983006 21 21.125815 20.458113 22.5625 19.8125 C 23.280842 19.489693 23.821168 19.161699 24.21875 18.8125 C 24.417541 18.637901 24.582097 18.448062 24.71875 18.25 C 24.855403 18.051938 25 17.863199 25 17.4375 C 25 17.09794 24.981163 16.78992 24.96875 16.46875 C 25.82342 16.804015 26.534173 17.18078 27.03125 17.5625 C 27.760123 18.122224 28 18.607733 28 19 C 28 19.338928 27.836162 19.742566 27.3125 20.21875 C 26.788838 20.694934 25.94047 21.171903 24.84375 21.59375 C 22.650309 22.437444 19.486054 23 16 23 C 12.513946 23 9.3496907 22.437444 7.15625 21.59375 C 6.0595296 21.171903 5.211162 20.694934 4.6875 20.21875 C 4.163838 19.742566 4 19.338928 4 19 C 4 18.607733 4.239877 18.122224 4.96875 17.5625 C 5.4658266 17.18078 6.1765798 16.804015 7.03125 16.46875 z" color="#000" overflow="visible" enable-background="accumulate" font-family="Bitstream Vera Sans"/>
</svg>