<svg xmlns="http://www.w3.org/2000/svg" viewBox="0 0 32 32" enable-background="new 0 0 32 32">
    <path d="M 14.03125 8 C 12.67925 8 11.3945 8.436 10.3125 9.25 L 3.40625 14.46875 C 1.90625 15.59575 1 17.374 1 19.25 L 1 21 L 0 21 L 0 23 L 3.40625 23 L 10.09375 23 L 14.53125 28.4375 L 15.78125 29.9375 L 17.3125 28.75 L 19.15625 27.3125 L 20.78125 26.0625 L 19.46875 24.46875 L 18.25 23 L 21.625 23 L 32 23 L 32 21 L 27.5 21 L 29.8125 20.125 L 31.65625 19.4375 L 31 17.59375 L 30 14.75 L 29.28125 12.75 L 27.34375 13.5625 L 22.8125 15.4375 L 18.96875 10.4375 C 17.78475 8.8995 15.97425 8 14.03125 8 z M 14.03125 10 C 15.29125 10 16.548 10.58125 17.375 11.65625 L 22.15625 17.90625 L 28.09375 15.40625 L 29.09375 18.25 L 22.09375 20.90625 C 21.93575 20.96525 21.788 21 21.625 21 C 21.258 21 20.891 20.8345 20.625 20.5625 L 15.28125 15.09375 L 9.5625 19 L 12.375 19 L 17.90625 25.75 L 16.09375 27.15625 L 11.03125 21 C 11.03125 21 7.47475 21 5.09375 21 C 4.4721082 21 4.3758174 21.001092 4 21 L 3 21 L 3 19.25 C 3 17.993 3.58775 16.8175 4.59375 16.0625 L 11.53125 10.84375 C 12.28625 10.27575 13.15325 10 14.03125 10 z M 15.03125 17.6875 L 18.25 21 L 16.625 21 L 14.3125 18.1875 L 15.03125 17.6875 z"/>
</svg>