<svg xmlns="http://www.w3.org/2000/svg" viewBox="0 0 32 32" enable-background="new 0 0 32 32">
    <path style="text-indent:0;text-align:start;line-height:normal;text-transform:none;block-progression:tb;-inkscape-font-specification:Bitstream Vera Sans" d="M 16 3 C 9.9545455 3 5 7.9545455 5 14 L 5 16 L 5 20 C 5 21.292368 5.8441574 22.394384 7 22.8125 L 7 23 C 7 25.745455 9.2545455 28 12 28 L 13.28125 28 C 13.628312 28.596878 14.263455 29 15 29 L 17 29 C 18.1 29 19 28.1 19 27 C 19 25.9 18.1 25 17 25 L 15 25 C 14.263455 25 13.628312 25.403122 13.28125 26 L 12 26 C 10.345455 26 9 24.654545 9 23 L 10 23 L 11 23 L 11 22 L 11 15 L 11 14 L 10 14 L 7 14 C 7 9.0454545 11.045455 5 16 5 C 20.954545 5 25 9.0454545 25 14 L 22 14 L 21 14 L 21 15 L 21 22 L 21 23 L 22 23 L 24 23 C 25.645455 23 27 21.645455 27 20 L 27 16 L 27 14 C 27 7.9545455 22.045455 3 16 3 z M 7 16 L 9 16 L 9 21 L 8 21 C 7.4454545 21 7 20.554545 7 20 L 7 16 z M 23 16 L 25 16 L 25 20 C 25 20.554545 24.554545 21 24 21 L 23 21 L 23 16 z" color="#000" overflow="visible" enable-background="accumulate" font-family="Bitstream Vera Sans"/>
</svg>