<svg xmlns="http://www.w3.org/2000/svg" viewBox="0 0 32 32" enable-background="new 0 0 32 32">
    <path style="text-indent:0;text-align:start;line-height:normal;text-transform:none;block-progression:tb;-inkscape-font-specification:Bitstream Vera Sans" d="M 7 7 C 5.3545455 7 4 8.3545455 4 10 L 4 22 C 4 23.645455 5.3545455 25 7 25 L 25 25 C 26.645455 25 28 23.645455 28 22 L 28 10 C 28 8.3545455 26.645455 7 25 7 L 7 7 z M 7 9 L 25 9 C 25.554545 9 26 9.4454545 26 10 L 26 22 C 26 22.554545 25.554545 23 25 23 L 7 23 C 6.4454545 23 6 22.554545 6 22 L 6 10 C 6 9.4454545 6.4454545 9 7 9 z M 8 15 C 7.4477153 15 7 15.447715 7 16 C 7 16.552285 7.4477153 17 8 17 C 8.5522847 17 9 16.552285 9 16 C 9 15.447715 8.5522847 15 8 15 z" color="#000" overflow="visible" enable-background="accumulate" font-family="Bitstream Vera Sans"/>
</svg>