<svg xmlns="http://www.w3.org/2000/svg" viewBox="0 0 32 32" enable-background="new 0 0 32 32">
    <path style="text-indent:0;text-align:start;line-height:normal;text-transform:none;block-progression:tb;-inkscape-font-specification:Bitstream Vera Sans" d="M 8 4 C 7.4777778 4 6.9395305 4.1854695 6.5625 4.5625 C 6.1854695 4.9395305 6 5.4777778 6 6 L 6 25.5 C 6 26.016667 6.3154687 26.364065 6.5625 26.5625 C 6.8095313 26.760935 7.0605716 26.888682 7.34375 27 C 7.9101068 27.222637 8.6157914 27.386903 9.46875 27.53125 C 11.174667 27.819944 13.453333 28 16 28 C 18.546667 28 20.825333 27.819944 22.53125 27.53125 C 23.384209 27.386903 24.089893 27.222637 24.65625 27 C 24.939428 26.888682 25.190469 26.760935 25.4375 26.5625 C 25.684531 26.364065 26 26.016667 26 25.5 L 26 6 C 26 5.4777778 25.814531 4.9395305 25.4375 4.5625 C 25.060469 4.1854695 24.522222 4 24 4 L 8 4 z M 8 6 L 24 6 L 24 25.125 C 23.96821 25.1398 23.9776 25.14049 23.9375 25.15625 C 23.597607 25.289863 22.990791 25.431847 22.21875 25.5625 C 20.674667 25.823806 18.453333 26 16 26 C 13.546667 26 11.325333 25.823806 9.78125 25.5625 C 9.0092086 25.431847 8.4023932 25.289863 8.0625 25.15625 C 8.0224002 25.140487 8.0317918 25.139802 8 25.125 L 8 6 z M 11 11 L 11 13 L 21 13 L 21 11 L 11 11 z M 11 15 L 11 17 L 18 17 L 18 15 L 11 15 z M 14 23 L 14 25 L 18 25 L 18 23 L 14 23 z" color="#000" overflow="visible" enable-background="accumulate" font-family="Bitstream Vera Sans"/>
</svg>