<svg xmlns="http://www.w3.org/2000/svg" viewBox="0 0 32 32" enable-background="new 0 0 32 32">
    <path style="text-indent:0;text-align:start;line-height:normal;text-transform:none;block-progression:tb;-inkscape-font-specification:Bitstream Vera Sans" d="M 16 3 C 9.5148912 3 4.1242273 7.7817867 3.15625 14 L 0.5 14 L 4 18.375 L 7.5 14 L 5.1875 14 C 6.1266523 8.874488 10.598246 5 16 5 C 19.043833 5 21.790174 6.2267566 23.78125 8.21875 L 25.1875 6.8125 C 22.836576 4.4604934 19.584167 3 16 3 z M 16 10 C 13.802706 10 12 11.802706 12 14 C 12 15.114227 12.475261 16.116062 13.21875 16.84375 C 11.88816 17.744728 11 19.281553 11 21 L 13 21 C 13 19.331516 14.331516 18 16 18 C 17.668484 18 19 19.331516 19 21 L 21 21 C 21 19.281553 20.11184 17.744728 18.78125 16.84375 C 19.524739 16.116062 20 15.114227 20 14 C 20 11.802706 18.197294 10 16 10 z M 16 12 C 17.116414 12 18 12.883586 18 14 C 18 15.116414 17.116414 16 16 16 C 14.883586 16 14 15.116414 14 14 C 14 12.883586 14.883586 12 16 12 z M 28 12.625 L 24.5 17 L 26.9375 17 C 26.432609 22.61417 21.748216 27 16 27 C 12.957249 27 10.209852 25.772352 8.21875 23.78125 L 6.8125 25.1875 C 9.163398 27.538398 12.416751 29 16 29 C 22.825964 29 28.417847 23.695066 28.9375 17 L 31.5 17 L 28 12.625 z" color="#000" overflow="visible" enable-background="accumulate" font-family="Bitstream Vera Sans"/>
</svg>