<svg xmlns="http://www.w3.org/2000/svg" viewBox="0 0 32 32" enable-background="new 0 0 32 32">
    <path style="text-indent:0;text-align:start;line-height:normal;text-transform:none;block-progression:tb;-inkscape-font-specification:Bitstream Vera Sans" d="M 4 6 C 3.4777778 6 2.9395305 6.1854695 2.5625 6.5625 C 2.1854695 6.9395305 2 7.4777778 2 8 L 2 24 C 2 24.522222 2.1854695 25.060469 2.5625 25.4375 C 2.9395305 25.814531 3.4777778 26 4 26 L 28 26 C 28.522222 26 29.060469 25.814531 29.4375 25.4375 C 29.814531 25.060469 30 24.522222 30 24 L 30 8 C 30 7.4777778 29.814531 6.9395305 29.4375 6.5625 C 29.060469 6.1854695 28.522222 6 28 6 L 4 6 z M 4 8 L 28 8 L 28 24 L 4 24 L 4 8 z M 16 10 C 14.354545 10 13 11.354545 13 13 L 13 14 L 12 14 L 11 14 L 11 15 L 11 21 L 11 22 L 12 22 L 20 22 L 21 22 L 21 21 L 21 15 L 21 14 L 20 14 L 19 14 L 19 13 C 19 11.354545 17.645455 10 16 10 z M 16 12 C 16.554545 12 17 12.445455 17 13 L 17 14 L 15 14 L 15 13 C 15 12.445455 15.445455 12 16 12 z M 13 16 L 19 16 L 19 20 L 13 20 L 13 16 z" color="#000" overflow="visible" enable-background="accumulate" font-family="Bitstream Vera Sans"/>
</svg>