<svg xmlns="http://www.w3.org/2000/svg" viewBox="0 0 32 32" enable-background="new 0 0 32 32">
    <path style="text-indent:0;text-align:start;line-height:normal;text-transform:none;block-progression:tb;-inkscape-font-specification:Bitstream Vera Sans" d="M 18 5 L 18 7 L 21.59375 7 L 16 12.5625 L 10 6.59375 L 8.59375 8 L 15.28125 14.71875 L 16 15.40625 L 16.71875 14.71875 L 23 8.40625 L 23 12 L 25 12 L 25 6 L 25 5 L 24 5 L 18 5 z M 16 16 C 12.077193 16 8.7854732 16.726472 6.625 17.34375 C 4.4931837 17.970755 3 19.943056 3 22.1875 L 3 25 C 3 25.522222 3.1854695 26.060469 3.5625 26.4375 C 3.9395305 26.814531 4.4777778 27 5 27 L 9 27 C 9.5222222 27 10.060469 26.814531 10.4375 26.4375 C 10.814531 26.060469 11 25.522222 11 25 L 11 22.375 C 11.188932 22.28409 11.223238 22.229904 11.78125 22.0625 C 12.693376 21.788862 14.1 21.5 16 21.5 C 17.9 21.5 19.306624 21.788862 20.21875 22.0625 C 20.776762 22.229904 20.811068 22.284085 21 22.375 L 21 25 C 21 25.522222 21.185469 26.060469 21.5625 26.4375 C 21.939531 26.814531 22.477778 27 23 27 L 27 27 C 27.522222 27 28.060469 26.814531 28.4375 26.4375 C 28.814531 26.060469 29 25.522222 29 25 L 29 22.1875 C 29 19.952848 27.489262 18.062744 25.40625 17.4375 C 25.39825 17.4348 25.38301 17.4402 25.375 17.4375 C 23.175686 16.707147 19.908581 16 16 16 z M 16 18 C 19.677193 18 22.780636 18.676879 24.78125 19.34375 L 24.8125 19.34375 C 26.11531 19.72693 27 20.831944 27 22.1875 L 27 25 L 23 25 L 23 21.6875 L 23 21.125 L 22.5 20.84375 C 22.5 20.84375 21.869124 20.482612 20.78125 20.15625 C 19.693376 19.829888 18.1 19.5 16 19.5 C 13.9 19.5 12.306624 19.829888 11.21875 20.15625 C 10.130876 20.482612 9.5 20.84375 9.5 20.84375 L 9 21.125 L 9 21.6875 L 9 25 L 5 25 L 5 22.1875 C 5 20.831944 5.9193163 19.622995 7.1875 19.25 C 9.2270268 18.667278 12.322807 18 16 18 z" color="#000" overflow="visible" enable-background="accumulate" font-family="Bitstream Vera Sans"/>
</svg>