<svg xmlns="http://www.w3.org/2000/svg" viewBox="0 0 32 32" enable-background="new 0 0 32 32">
    <path style="text-indent:0;text-align:start;line-height:normal;text-transform:none;block-progression:tb;-inkscape-font-specification:Bitstream Vera Sans" d="M 2 5 L 2 6 L 2 24 L 2 25 L 3 25 L 7 25 L 7 28 L 7 30.09375 L 8.625 28.78125 L 13.34375 25 L 29 25 L 30 25 L 30 24 L 30 6 L 30 5 L 29 5 L 3 5 L 2 5 z M 4 7 L 28 7 L 28 23 L 13 23 L 12.65625 23 L 12.375 23.21875 L 9 25.90625 L 9 24 L 9 23 L 8 23 L 4 23 L 4 7 z M 23 10 C 21.895431 10 21 10.895431 21 12 C 21 13.104569 21.895431 14 23 14 C 24.104569 14 25 13.104569 25 12 C 25 10.895431 24.104569 10 23 10 z M 11.90625 12.28125 L 11.1875 13 L 6.28125 17.90625 L 7.71875 19.3125 L 11.90625 15.125 L 16.1875 19.40625 L 16.90625 20.125 L 17.59375 19.40625 L 19.6875 17.3125 L 22.28125 19.90625 L 23.71875 18.5 L 20.40625 15.1875 L 19.6875 14.5 L 19 15.1875 L 16.875 17.3125 L 12.59375 13 L 11.90625 12.28125 z" color="#000" overflow="visible" enable-background="accumulate" font-family="Bitstream Vera Sans"/>
</svg>