<svg xmlns="http://www.w3.org/2000/svg" viewBox="0 0 32 32" enable-background="new 0 0 32 32">
    <path style="text-indent:0;text-align:start;line-height:normal;text-transform:none;block-progression:tb;-inkscape-font-specification:Bitstream Vera Sans" d="M 6 4 C 5.4777778 4 4.9395305 4.1854695 4.5625 4.5625 C 4.1854695 4.9395305 4 5.4777778 4 6 L 4 20 C 4 20.522222 4.1854695 21.060469 4.5625 21.4375 C 4.9395305 21.814531 5.4777778 22 6 22 L 10 22 L 10 23 C 10 23.522222 10.185469 24.060469 10.5625 24.4375 C 10.939531 24.814531 11.477778 25 12 25 L 16 25 L 16 26 C 16 26.522222 16.185469 27.060469 16.5625 27.4375 C 16.939531 27.814531 17.477778 28 18 28 L 26 28 C 26.522222 28 27.060469 27.814531 27.4375 27.4375 C 27.814531 27.060469 28 26.522222 28 26 L 28 12 C 28 11.477778 27.814531 10.939531 27.4375 10.5625 C 27.060469 10.185469 26.522222 10 26 10 L 22 10 L 22 9 C 22 8.4777778 21.814531 7.9395305 21.4375 7.5625 C 21.060469 7.1854695 20.522222 7 20 7 L 16 7 L 16 6 C 16 5.4777778 15.814531 4.9395305 15.4375 4.5625 C 15.060469 4.1854695 14.522222 4 14 4 L 6 4 z M 6 6 L 14 6 L 14 7 L 12 7 C 11.477778 7 10.939531 7.1854695 10.5625 7.5625 C 10.185469 7.9395305 10 8.4777778 10 9 L 10 17 L 8.5 17 L 8.5 19 L 10 19 L 10 20 L 6 20 L 6 6 z M 12 9 L 20 9 L 20 10 L 18 10 C 17.477778 10 16.939531 10.185469 16.5625 10.5625 C 16.185469 10.939531 16 11.477778 16 12 L 16 20 L 14.5 20 L 14.5 22 L 16 22 L 16 23 L 12 23 L 12 9 z M 18 12 L 26 12 L 26 26 L 18 26 L 18 12 z M 20.5 23 L 20.5 25 L 23.5 25 L 23.5 23 L 20.5 23 z" color="#000" overflow="visible" enable-background="accumulate" font-family="Bitstream Vera Sans"/>
</svg>