<svg xmlns="http://www.w3.org/2000/svg" viewBox="0 0 32 32" enable-background="new 0 0 32 32">
    <path style="text-indent:0;text-align:start;line-height:normal;text-transform:none;block-progression:tb;-inkscape-font-specification:Bitstream Vera Sans" d="M 4 4 L 4 5 L 4 27 L 4 28 L 5 28 L 27 28 L 28 28 L 28 27 L 28 5 L 28 4 L 27 4 L 5 4 L 4 4 z M 6 6 L 26 6 L 26 26 L 23.9375 26 C 23.594818 23.296301 21.881549 21.011348 19.53125 19.84375 C 21.024866 18.750036 22 16.983743 22 15 C 22 11.698136 19.301864 9 16 9 C 12.698136 9 10 11.698136 10 15 C 10 16.983743 10.975134 18.750036 12.46875 19.84375 C 10.118451 21.011348 8.4051817 23.296301 8.0625 26 L 6 26 L 6 6 z M 16 11 C 18.220984 11 20 12.779016 20 15 C 20 17.220984 18.220984 19 16 19 C 13.779016 19 12 17.220984 12 15 C 12 12.779016 13.779016 11 16 11 z M 16 21 C 18.986265 21 21.435112 23.151957 21.90625 26 L 10.09375 26 C 10.564888 23.151957 13.013735 21 16 21 z" color="#000" overflow="visible" enable-background="accumulate" font-family="Bitstream Vera Sans"/>
</svg>