<svg xmlns="http://www.w3.org/2000/svg" viewBox="0 0 32 32" enable-background="new 0 0 32 32">
    <path style="text-indent:0;text-align:start;line-height:normal;text-transform:none;block-progression:tb;-inkscape-font-specification:Bitstream Vera Sans" d="M 9 4 C 6.2545455 4 4 6.2545455 4 9 L 4 23 C 4 25.745455 6.2545455 28 9 28 L 23 28 C 25.745455 28 28 25.745455 28 23 L 28 9 C 28 6.2545455 25.745455 4 23 4 L 9 4 z M 9 6 L 9 8 L 9 23 L 11 23 L 11 10.21875 L 18.34375 16.75 L 19.65625 15.25 L 10.65625 7.25 L 9.25 6 L 23 6 C 24.654545 6 26 7.3454545 26 9 L 26 23 C 26 24.654545 24.654545 26 23 26 L 23 24 L 23 9 L 21 9 L 21 21.78125 L 13.65625 15.25 L 12.34375 16.75 L 21.34375 24.75 L 22.75 26 L 9 26 C 7.3454545 26 6 24.654545 6 23 L 6 9 C 6 7.3454545 7.3454545 6 9 6 z" color="#000" overflow="visible" enable-background="accumulate" font-family="Bitstream Vera Sans"/>
</svg>