<svg xmlns="http://www.w3.org/2000/svg" viewBox="0 0 32 32" enable-background="new 0 0 32 32">
    <path d="M 16 4.0625 C 14.209013 4.0631479 12.438461 4.7490394 11.09375 6.09375 L 12.5 7.5 C 14.410579 5.5894211 17.574454 5.5960918 19.59375 7.53125 L 21 6.0625 C 19.609648 4.7300791 17.790987 4.0618521 16 4.0625 z M 9 7 L 9 26 C 9 27.1 9.9 28 11 28 L 21 28 C 22.1 28 23 27.1 23 26 L 23 7 L 21 9 L 21 26 L 11 26 L 11 9 L 9 7 z M 16.0625 7 C 15.034032 6.99836 13.974098 7.4009024 13.1875 8.1875 L 14.59375 9.59375 C 15.420555 8.7669452 16.662585 8.7853205 17.375 9.5625 L 18.84375 8.21875 C 18.099957 7.4073398 17.090968 7.0016424 16.0625 7 z M 16 10 C 15.447715 10 15 10.447715 15 11 C 15 11.552285 15.447715 12 16 12 C 16.552285 12 17 11.552285 17 11 C 17 10.447715 16.552285 10 16 10 z M 14.5 23 L 14.5 25 L 17.5 25 L 17.5 23 L 14.5 23 z"/>
</svg>