<svg xmlns="http://www.w3.org/2000/svg" viewBox="0 0 32 32" enable-background="new 0 0 32 32">
    <path style="text-indent:0;text-align:start;line-height:normal;text-transform:none;block-progression:tb;-inkscape-font-specification:Bitstream Vera Sans" d="M 25.1875 4.53125 L 23.40625 5.46875 C 23.40625 5.46875 26 10.405085 26 16 C 26 21.594915 23.40625 26.53125 23.40625 26.53125 L 25.1875 27.46875 C 25.1875 27.46875 28 22.205085 28 16 C 28 9.7949153 25.1875 4.53125 25.1875 4.53125 z M 20.78125 6.9375 L 19 7.875 C 19 7.875 21 11.704348 21 16 C 21 20.295652 19 24.125 19 24.125 L 20.78125 25.0625 C 20.78125 25.0625 23 20.904348 23 16 C 23 11.095652 20.78125 6.9375 20.78125 6.9375 z M 16.375 9.53125 L 14.625 10.46875 C 14.625 10.46875 16 13.1125 16 16 C 16 17.765621 15.557624 19.185115 15.15625 20.21875 L 6.71875 11.3125 L 5.75 10.3125 L 5.125 11.53125 C 5.125 11.53125 4 13.58254 4 16 C 4 18.41746 5.125 20.46875 5.125 20.46875 L 6.875 19.53125 C 6.875 19.53125 6 17.78254 6 16 C 6 15.212333 6.1821284 14.470901 6.375 13.84375 L 14.78125 22.6875 L 15.71875 23.6875 L 16.375 22.46875 C 16.375 22.46875 18 19.5125 18 16 C 18 12.4875 16.375 9.53125 16.375 9.53125 z" color="#000" overflow="visible" enable-background="accumulate" font-family="Bitstream Vera Sans"/>
</svg>