<svg xmlns="http://www.w3.org/2000/svg" viewBox="0 0 32 32" enable-background="new 0 0 32 32">
    <path style="text-indent:0;text-align:start;line-height:normal;text-transform:none;block-progression:tb;-inkscape-font-specification:Bitstream Vera Sans" d="M 9 4 C 7.3545455 4 6 5.3545455 6 7 L 6 25 C 6 26.645455 7.3545455 28 9 28 L 23 28 C 24.645455 28 26 26.645455 26 25 L 26 7 C 26 5.3545455 24.645455 4 23 4 L 9 4 z M 9 6 L 23 6 C 23.554545 6 24 6.4454545 24 7 L 24 25 C 24 25.554545 23.554545 26 23 26 L 9 26 C 8.4454545 26 8 25.554545 8 25 L 8 7 C 8 6.4454545 8.4454545 6 9 6 z M 11 11 L 11 13 L 21 13 L 21 11 L 11 11 z M 11 15 L 11 17 L 18 17 L 18 15 L 11 15 z M 16 21 C 14.354545 21 13 22.354545 13 24 L 13 25 L 15 25 L 15 24 C 15 23.445455 15.445455 23 16 23 C 16.554545 23 17 23.445455 17 24 L 17 25 L 19 25 L 19 24 C 19 22.354545 17.645455 21 16 21 z" color="#000" overflow="visible" enable-background="accumulate" font-family="Bitstream Vera Sans"/>
</svg>