<svg xmlns="http://www.w3.org/2000/svg" viewBox="0 0 32 32" enable-background="new 0 0 32 32">
    <path style="text-indent:0;text-align:start;line-height:normal;text-transform:none;block-progression:tb;-inkscape-font-specification:Bitstream Vera Sans" d="M 10.4375 5 L 10.15625 5.5 C 10.15625 5.5 9.248362 7.0460811 8.40625 9.5625 C 6.5776934 10.739736 2 14.339131 2 21 L 2 24 L 2 25 L 3 25 L 10.375 25 C 11.918661 26.243072 13.870741 27 16 27 C 18.129259 27 20.081339 26.243072 21.625 25 L 29 25 L 30 25 L 30 24 L 30 21 C 30 14.1189 25.207804 10.482449 23.5625 9.4375 C 22.731868 6.992279 21.84375 5.5 21.84375 5.5 L 21.5625 5 L 21 5 L 11 5 L 10.4375 5 z M 11.625 7 L 20.375 7 C 20.728189 7.6249852 22.652341 11.359244 22.90625 17 L 9.09375 17 C 9.3476508 11.357824 11.271822 7.62472 11.625 7 z M 15 9 L 15 11 L 13 11 L 13 13 L 15 13 L 15 15 L 17 15 L 17 13 L 19 13 L 19 11 L 17 11 L 17 9 L 15 9 z M 24.4375 12.65625 C 26.089327 14.233476 28 16.939937 28 21 L 28 23 L 23.5 23 C 24.279381 21.836042 24.77281 20.458441 24.9375 19 L 25 19 L 25 18 C 25 16.046983 24.769862 14.251627 24.4375 12.65625 z M 7.53125 12.78125 C 7.2137492 14.343982 7 16.100194 7 18 L 7 19 L 7.0625 19 C 7.2271897 20.458441 7.7206193 21.836042 8.5 23 L 4 23 L 4 21 C 4 17.047528 5.8667058 14.375823 7.53125 12.78125 z M 9.09375 19 L 22.90625 19 C 22.420574 22.396992 19.535296 25 16 25 C 12.464704 25 9.579426 22.396992 9.09375 19 z" color="#000" overflow="visible" enable-background="accumulate" font-family="Bitstream Vera Sans"/>
</svg>