<svg xmlns="http://www.w3.org/2000/svg" viewBox="0 0 32 32" enable-background="new 0 0 32 32">
    <path style="text-indent:0;text-align:start;line-height:normal;text-transform:none;block-progression:tb;-inkscape-font-specification:Bitstream Vera Sans" d="M 16 2 C 13.755708 2 11.876812 3.516173 11.25 5.5625 C 9.1211219 6.132956 7.5064743 7.1213681 6.375 8.46875 C 4.5182732 10.679777 4 13.658425 4 16.8125 C 4 17.847101 4.3226021 18.626914 4.6875 19.125 C 4.800115 19.27872 4.914353 19.393343 5.03125 19.5 C 5.2272266 20.504217 6.0389093 21.210863 7 21.59375 L 7 22 C 7 25.301625 9.6983746 28 13 28 L 13.90625 28 C 14.450631 28.573108 15.148066 29 16 29 C 16.851934 29 17.549464 28.572467 18.09375 28 L 19 28 C 22.301625 28 25 25.301625 25 22 L 25 21.59375 C 25.970837 21.20698 26.783139 20.488941 26.96875 19.46875 C 27.08095 19.364844 27.204918 19.271849 27.3125 19.125 C 27.677398 18.626914 28 17.847101 28 16.8125 C 28 13.661797 27.481516 10.680524 25.625 8.46875 C 24.493654 7.1209132 22.878903 6.1328088 20.75 5.5625 C 20.123188 3.516173 18.244292 2 16 2 z M 16 4 C 16.954471 4 17.796012 4.4397057 18.34375 5.125 C 17.608887 5.0465883 16.832221 5 16 5 C 15.167826 5 14.391086 5.0465535 13.65625 5.125 C 14.203988 4.4397057 15.045529 4 16 4 z M 16 7 C 20.310602 7 22.693266 8.0815235 24.09375 9.75 C 25.494234 11.418476 26 13.884203 26 16.8125 C 26 16.873237 26.00305 16.913865 26 16.96875 C 25.708425 16.732248 25.361146 16.550126 25 16.40625 L 25 15 C 25 14.057583 24.649534 13.179988 24 12.65625 C 23.350466 12.132512 22.569405 11.979545 21.75 11.90625 C 20.111191 11.75966 18.136267 12 16 12 C 13.868033 12 11.891061 11.736285 10.25 11.875 C 9.4294697 11.944358 8.6515208 12.09536 8 12.625 C 7.3484792 13.15464 7 14.047133 7 15 L 7 16.40625 C 6.6388543 16.550126 6.2915753 16.732248 6 16.96875 C 5.9969501 16.913865 6 16.873237 6 16.8125 C 6 13.880575 6.5059768 11.417473 7.90625 9.75 C 9.3065232 8.0825269 11.689137 7 16 7 z M 11.5 13.84375 C 12.70507 13.863995 14.285475 14 16 14 C 18.281733 14 20.305809 13.76259 21.5625 13.875 C 22.190845 13.93121 22.589846 14.089613 22.75 14.21875 C 22.910154 14.347887 23 14.460417 23 15 L 23 17 L 23 18 L 24 18 C 24.56503 18 25 18.43497 25 19 C 25 19.56503 24.56503 20 24 20 L 23 20 L 23 21 L 23 22 C 23 24.220375 21.220375 26 19 26 L 17.71875 26 L 17.15625 26 L 16.84375 26.5 C 16.665571 26.805523 16.373641 27 16 27 C 15.626359 27 15.332839 26.803671 15.15625 26.5 L 14.84375 26 L 14.28125 26 L 13 26 C 10.779625 26 9 24.220375 9 22 L 9 21 L 9 20 L 8 20 C 7.4349698 20 7 19.56503 7 19 C 7 18.43497 7.4349698 18 8 18 L 9 18 L 9 17 L 9 15 C 9 14.442367 9.091833 14.316078 9.25 14.1875 C 9.4081667 14.058922 9.8102803 13.928017 10.4375 13.875 C 10.75111 13.848491 11.09831 13.837002 11.5 13.84375 z M 12 16 C 10.906937 16 10 16.906937 10 18 L 10 20 C 10 21.093063 10.906937 22 12 22 L 14 22 C 15.093063 22 16 21.093063 16 20 C 16 21.093063 16.906937 22 18 22 L 20 22 C 21.093063 22 22 21.093063 22 20 L 22 18 C 22 16.906937 21.093063 16 20 16 L 18 16 C 16.906937 16 16 16.906937 16 18 C 16 16.906937 15.093063 16 14 16 L 12 16 z M 12 18 L 14 18 L 14 20 L 12 20 L 12 18 z M 18 18 L 20 18 L 20 20 L 18 20 L 18 18 z" color="#000" overflow="visible" enable-background="accumulate" font-family="Bitstream Vera Sans"/>
</svg>