<svg xmlns="http://www.w3.org/2000/svg" viewBox="0 0 32 32" enable-background="new 0 0 32 32">
    <path style="text-indent:0;text-align:start;line-height:normal;text-transform:none;block-progression:tb;-inkscape-font-specification:Bitstream Vera Sans" d="M 5 8 L 5 19 C 5 22.32381 7.6761905 25 11 25 C 13.093361 25 14.927179 23.928789 16 22.3125 C 17.072821 23.928789 18.906639 25 21 25 C 24.32381 25 27 22.32381 27 19 L 27 8 L 25 8 L 25 19 C 25 21.27619 23.27619 23 21 23 C 18.72381 23 17 21.27619 17 19 L 17 15 L 15 15 L 15 19 C 15 21.27619 13.27619 23 11 23 C 8.7238095 23 7 21.27619 7 19 L 7 8 L 5 8 z" color="#000" overflow="visible" enable-background="accumulate" font-family="Bitstream Vera Sans"/>
</svg>