<svg xmlns="http://www.w3.org/2000/svg" viewBox="0 0 32 32" enable-background="new 0 0 32 32">
    <path style="text-indent:0;text-align:start;line-height:normal;text-transform:none;block-progression:tb;-inkscape-font-specification:Bitstream Vera Sans" d="M 18.96875 5 C 17.971631 5 17.178221 5.1079615 16.4375 5.46875 C 15.696779 5.8295385 15.106852 6.3618976 14.375 7.09375 C 13.894841 7.5739088 12.610737 9.0142451 11.21875 10.59375 C 9.8267628 12.173255 8.393617 13.82983 7.78125 14.53125 C 7.3624642 15.011322 7.339104 15.730034 7.65625 16.25 C 6.1113823 16.805097 5 18.272048 5 20 C 5 21.114227 5.4752606 22.116062 6.21875 22.84375 C 4.88816 23.744728 4 25.281553 4 27 L 6 27 C 6 25.331516 7.3315161 24 9 24 C 10.668484 24 12 25.331516 12 27 L 14 27 C 14 25.281553 13.11184 23.744728 11.78125 22.84375 C 12.524739 22.116062 13 21.114227 13 20 C 13 19.144854 12.71308 18.371362 12.25 17.71875 C 12.66001 17.540444 13.024715 17.283221 13.34375 16.9375 L 14 16.21875 L 14 19 C 14 20.350446 15.107276 21.455369 16.46875 21.46875 C 16.975924 21.47345 17.334792 21.42748 17.53125 21.40625 C 17.615379 21.486262 17.788925 21.609633 18 21.75 C 18.378481 22.001693 18.976802 22.21875 19.6875 22.21875 C 20.427242 22.21875 21.003091 21.91742 21.34375 21.6875 C 21.466988 21.60432 21.534083 21.574779 21.59375 21.53125 C 21.68736 21.54546 21.777959 21.56716 22.03125 21.59375 C 22.3758 21.62992 22.834026 21.64488 23.34375 21.4375 C 23.830182 21.239598 24.121791 20.956036 24.3125 20.78125 C 24.503209 20.606464 24.594532 20.585095 24.5625 20.59375 C 24.59184 20.58585 24.81535 20.56465 25.15625 20.5625 C 25.49715 20.5603 25.960785 20.53308 26.46875 20.28125 C 27.202613 19.918281 28 19.097992 28 17.90625 L 28 10.5 C 28 7.4794086 25.520591 5 22.5 5 L 18.96875 5 z M 18.96875 7 L 22.5 7 C 24.439409 7 26 8.5605914 26 10.5 L 26 17.90625 C 26 18.196508 25.785887 18.404969 25.59375 18.5 C 25.51072 18.54117 25.3781 18.5609 25.125 18.5625 C 24.8719 18.5641 24.508914 18.52812 24.03125 18.65625 C 23.492218 18.801905 23.179291 19.119536 22.96875 19.3125 C 22.758209 19.505464 22.633318 19.577652 22.59375 19.59375 C 22.57747 19.60035 22.45795 19.61558 22.25 19.59375 C 22.04205 19.57192 21.823321 19.5 21.4375 19.5 C 21.027296 19.5 20.756479 19.674868 20.59375 19.78125 C 20.431021 19.887632 20.341921 19.96921 20.25 20.03125 C 20.066159 20.15533 19.961758 20.21875 19.6875 20.21875 C 19.353198 20.21875 19.248769 20.14481 19.125 20.0625 C 19.001231 19.98019 18.957016 19.848373 18.5 19.59375 C 18.067212 19.352737 17.623792 19.375983 17.34375 19.40625 C 17.063708 19.43652 16.817576 19.47201 16.46875 19.46875 C 16.202224 19.466131 16 19.277554 16 19 L 16 13.65625 L 16 11.09375 L 14.25 12.96875 L 11.875 15.59375 C 11.417231 16.089809 10.663668 16.157146 10.125 15.75 L 9.6875 15.40625 C 10.39038 14.601558 11.495457 13.325585 12.71875 11.9375 C 14.106763 10.362505 15.507409 8.8050912 15.78125 8.53125 C 16.474398 7.8381024 16.921471 7.4717115 17.3125 7.28125 C 17.703529 7.0907885 18.111869 7 18.96875 7 z M 9 18 C 10.116414 18 11 18.883586 11 20 C 11 21.116414 10.116414 22 9 22 C 7.883586 22 7 21.116414 7 20 C 7 18.883586 7.883586 18 9 18 z" color="#000" overflow="visible" enable-background="accumulate" font-family="Bitstream Vera Sans"/>
</svg>