<svg xmlns="http://www.w3.org/2000/svg" viewBox="0 0 32 32" enable-background="new 0 0 32 32">
    <path style="text-indent:0;text-align:start;line-height:normal;text-transform:none;block-progression:tb;-inkscape-font-specification:Bitstream Vera Sans" d="M 22.625 3.03125 C 22.304696 3.0615295 21.976758 3.146741 21.65625 3.28125 L 21.65625 3.25 C 21.64093 3.25533 21.60925 3.275816 21.59375 3.28125 C 19.158276 4.1348764 14.498129 6.2831209 10.28125 10.5 C 6.0317803 14.74947 3.9808195 19.496933 3.0625 21.84375 L 3.0625 21.875 C 2.6570907 23.091228 2.9458302 24.405552 3.75 25.34375 L 3.78125 25.375 L 3.78125 25.40625 L 6.78125 28.375 L 6.90625 28.5 C 7.7362332 29.329983 9.1700168 29.329983 10 28.5 L 14.09375 24.40625 C 14.923733 23.576267 14.923733 22.111233 14.09375 21.28125 L 12.125 19.3125 C 12.466913 18.596516 13.359415 16.840731 14.9375 15.1875 C 16.504088 13.546313 18.302452 12.709968 19 12.40625 L 21 14.40625 L 21.0625 14.46875 L 21.15625 14.53125 C 21.626927 14.845035 22.161524 15.021432 22.71875 15 C 23.240314 14.97994 23.786692 14.72112 24.1875 14.28125 L 24.21875 14.3125 L 24.28125 14.21875 L 28.3125 10.21875 C 29.142483 9.3887668 29.142483 7.9237332 28.3125 7.09375 L 25.21875 4 C 24.781257 3.562507 24.191339 3.2344303 23.5625 3.09375 C 23.257973 3.0256228 22.945304 3.0009705 22.625 3.03125 z M 22.78125 5.03125 C 23.159182 5.004226 23.537489 5.1624895 23.78125 5.40625 L 26.90625 8.5 C 27.076267 8.6700168 27.076267 8.6112332 26.90625 8.78125 L 22.78125 12.90625 L 22.75 12.9375 L 22.71875 12.96875 C 22.72195 12.96485 22.717774 12.99643 22.625 13 C 22.54614 13.003 22.428325 12.93604 22.3125 12.875 L 22.25 12.875 L 19.90625 10.5 L 19.4375 10.03125 L 18.84375 10.25 C 18.84375 10.25 15.77129 11.400316 13.46875 13.8125 C 11.207515 16.181413 9.96875 19.09375 9.96875 19.09375 L 9.71875 19.71875 L 10.1875 20.21875 L 12.6875 22.71875 C 12.857517 22.888767 12.857517 22.829983 12.6875 23 L 8.59375 27.09375 C 8.4237332 27.263767 8.4825168 27.263767 8.3125 27.09375 L 5.25 24.0625 C 5.24224 24.0535 5.25754 24.04032 5.25 24.03125 L 5.21875 24 C 4.8709886 23.564991 4.7662799 23.106112 4.9375 22.5625 C 4.94108 22.55114 4.93369 22.54269 4.9375 22.53125 C 5.8225547 20.272271 7.7789779 15.846022 11.71875 11.90625 C 15.675029 7.9499709 20.16586 5.9137768 22.34375 5.15625 L 22.375 5.125 L 22.40625 5.125 C 22.526052 5.0717548 22.655273 5.040258 22.78125 5.03125 z" color="#000" overflow="visible" enable-background="accumulate" font-family="Bitstream Vera Sans"/>
</svg>