<svg xmlns="http://www.w3.org/2000/svg" viewBox="0 0 32 32" enable-background="new 0 0 32 32">
    <path style="text-indent:0;text-align:start;line-height:normal;text-transform:none;block-progression:tb;-inkscape-font-specification:Bitstream Vera Sans" d="M 16 5 C 13.231481 5 11.085886 7.0074473 9.25 8.78125 C 8.3320571 9.6681513 7.466721 10.526965 6.71875 11.125 C 5.970779 11.723035 5.3649031 12 5 12 C 3.3733233 12 2 13.332707 2 15 C 2 16.155818 2.6720909 16.893526 3.21875 17.5625 C 3.518052 17.928771 3.7903022 18.230317 4 18.4375 L 4 22 L 4 22.4375 L 4.3125 22.71875 C 4.3125 22.71875 8.7767371 27 16 27 C 23.223263 27 27.6875 22.71875 27.6875 22.71875 L 28 22.4375 L 28 22 L 28 18.4375 C 28.209698 18.230317 28.481948 17.928771 28.78125 17.5625 C 29.327909 16.893526 30 16.155818 30 15 C 30 13.350204 28.640908 12 27 12 C 26.64307 12 26.028774 11.723395 25.28125 11.125 C 24.533726 10.526605 23.669419 9.668292 22.75 8.78125 C 20.911162 7.0071661 18.768519 5 16 5 z M 16 7 C 17.731481 7 19.586088 8.4928339 21.375 10.21875 C 22.269456 11.081708 23.13918 11.973395 24.03125 12.6875 C 24.92332 13.401605 25.86243 14 27 14 C 27.553092 14 28 14.439796 28 15 C 28 14.94918 27.672091 15.726474 27.21875 16.28125 C 26.89181 16.681343 26.721362 16.841948 26.5625 17 L 5.4375 17 C 5.2786384 16.841948 5.1081902 16.681343 4.78125 16.28125 C 4.3279091 15.726474 4 14.949182 4 15 C 4 14.457293 4.4906767 14 5 14 C 6.1400969 14 7.0751585 13.401965 7.96875 12.6875 C 8.8623415 11.973035 9.7316929 11.081849 10.625 10.21875 C 12.411614 8.4925527 14.268519 7 16 7 z M 14 11 L 14 14 L 16 15 L 18 14 L 18 11 L 14 11 z M 6 19 L 26 19 L 26 21 L 6 21 L 6 19 z M 8.15625 23 L 23.84375 23 C 22.148913 23.955967 19.522714 25 16 25 C 12.477286 25 9.8510865 23.955967 8.15625 23 z" color="#000" overflow="visible" enable-background="accumulate" font-family="Bitstream Vera Sans"/>
</svg>