<svg xmlns="http://www.w3.org/2000/svg" viewBox="0 0 32 32" enable-background="new 0 0 32 32">
    <path style="text-indent:0;text-align:start;line-height:normal;text-transform:none;block-progression:tb;-inkscape-font-specification:Bitstream Vera Sans" d="M 16 5 C 12.145852 5 9 8.1458513 9 12 C 9 14.408843 10.23116 16.55212 12.09375 17.8125 C 8.5262529 19.341707 6 22.87927 6 27 L 8 27 C 8 22.589 11.589 19 16 19 C 19.931 19 23.208 21.85075 23.875 25.59375 L 25.53125 23.9375 C 24.641625 21.171 22.554304 18.945854 19.90625 17.8125 C 21.76884 16.55212 23 14.408843 23 12 C 23 8.1458513 19.854148 5 16 5 z M 16 7 C 18.773268 7 21 9.2267317 21 12 C 21 14.773268 18.773268 17 16 17 C 13.226732 17 11 14.773268 11 12 C 11 9.2267317 13.226732 7 16 7 z M 29.28125 22.28125 L 23 28.5625 L 19.71875 25.28125 L 18.28125 26.71875 L 22.28125 30.71875 L 23 31.40625 L 23.71875 30.71875 L 30.71875 23.71875 L 29.28125 22.28125 z" color="#000" overflow="visible" enable-background="accumulate" font-family="Bitstream Vera Sans"/>
</svg>