<svg xmlns="http://www.w3.org/2000/svg" viewBox="0 0 32 32" enable-background="new 0 0 32 32">
    <path d="M 18.21875 2.28125 L 16.78125 3.71875 L 19.0625 6 L 16 6 C 13.254545 6 11 8.2545455 11 11 L 11 17 L 13 17 L 13 11 C 13 9.3454545 14.345455 8 16 8 L 19.0625 8 L 16.78125 10.28125 L 18.21875 11.71875 L 22.21875 7.71875 L 22.90625 7 L 22.21875 6.28125 L 18.21875 2.28125 z M 5 10 C 3.9 10 3 10.9 3 12 L 3 26 C 3 27.1 3.9 28 5 28 L 27 28 C 28.1 28 29 27.1 29 26 L 29 12 C 29 10.9 28.1 10 27 10 L 22 10 L 20 12 L 27 12 L 27 26 L 5 26 L 5 12 L 10 12 L 10 10 L 5 10 z"/>
</svg>