<svg xmlns="http://www.w3.org/2000/svg" viewBox="0 0 32 32" enable-background="new 0 0 32 32">
    <path style="text-indent:0;text-align:start;line-height:normal;text-transform:none;block-progression:tb;-inkscape-font-specification:Bitstream Vera Sans" d="M 9 4 C 8.4777778 4 7.9395305 4.1854695 7.5625 4.5625 C 7.1854695 4.9395305 7 5.4777778 7 6 L 7 26 C 7 26.522222 7.1854695 27.060469 7.5625 27.4375 C 7.9395305 27.814531 8.4777778 28 9 28 L 23 28 C 23.522222 28 24.060469 27.814531 24.4375 27.4375 C 24.814531 27.060469 25 26.522222 25 26 L 25 11.40625 C 25 10.884028 24.724101 10.317851 24.40625 10 L 19 4.59375 C 18.682149 4.2758989 18.115972 4 17.59375 4 L 9 4 z M 9 6 L 17.59375 6 L 23 11.40625 L 23 26 L 9 26 L 9 6 z M 11 15 L 11 16 L 11 23 L 11 24 L 12 24 L 20 24 L 21 24 L 21 23 L 21 16 L 21 15 L 20 15 L 12 15 L 11 15 z M 13 17 L 19 17 L 19 22 L 13 22 L 13 17 z" color="#000" overflow="visible" enable-background="accumulate" font-family="Bitstream Vera Sans"/>
</svg>