<svg xmlns="http://www.w3.org/2000/svg" viewBox="0 0 32 32" enable-background="new 0 0 32 32">
    <path style="text-indent:0;text-align:start;line-height:normal;text-transform:none;block-progression:tb;-inkscape-font-specification:Bitstream Vera Sans" d="M 8 7 C 6.3545455 7 5 8.3545455 5 10 L 5 22 C 5 23.645455 6.3545455 25 8 25 L 24 25 C 25.645455 25 27 23.645455 27 22 L 27 10 C 27 8.3545455 25.645455 7 24 7 L 8 7 z M 8 9 L 24 9 C 24.554545 9 25 9.4454545 25 10 L 25 13 L 21 13 C 21 12.445455 21.445455 12 22 12 L 22 10 C 20.354545 10 19 11.354545 19 13 L 19 18.375 C 17.834595 18.944966 17 20.122348 17 21.5 C 17 22.046158 17.149042 22.537986 17.375 23 L 14.625 23 C 14.850958 22.537986 15 22.046158 15 21.5 C 15 20.122348 14.165405 18.944966 13 18.375 L 13 13 C 13 11.354545 11.645455 10 10 10 L 10 12 C 10.554545 12 11 12.445455 11 13 L 7 13 L 7 10 C 7 9.4454545 7.4454545 9 8 9 z M 7 15 L 11 15 L 11 18 L 7 18 L 7 15 z M 21 15 L 25 15 L 25 18 L 21 18 L 21 15 z M 7 20 L 11.5 20 C 12.37619 20 13 20.62381 13 21.5 C 13 22.37619 12.37619 23 11.5 23 L 8 23 C 7.4454545 23 7 22.554545 7 22 L 7 20 z M 20.5 20 L 25 20 L 25 22 C 25 22.554545 24.554545 23 24 23 L 20.5 23 C 19.62381 23 19 22.37619 19 21.5 C 19 20.62381 19.62381 20 20.5 20 z" color="#000" overflow="visible" enable-background="accumulate" font-family="Bitstream Vera Sans"/>
</svg>