<svg xmlns="http://www.w3.org/2000/svg" viewBox="0 0 32 32" enable-background="new 0 0 32 32">
    <path style="text-indent:0;text-align:start;line-height:normal;text-transform:none;block-progression:tb;-inkscape-font-specification:Bitstream Vera Sans" d="M 17.21875 5.875 L 16.8125 6.3125 C 16.445373 6.6934884 15.641815 7.3752887 14.59375 7.78125 C 13.561522 8.1810773 12.285854 8.3536263 10.71875 7.71875 C 10.69585 7.707788 10.67912 7.698198 10.65625 7.6875 C 8.9279348 6.8790193 7.261345 6.8218704 5.96875 7.4375 C 4.7318128 8.0266212 3.9604245 9.201451 3.625 10.53125 L 3.59375 10.53125 L 3.09375 11.6875 L 2.84375 12.21875 L 3.1875 12.6875 C 3.1875 12.6875 4.1939265 14.049433 6.15625 15.46875 C 4.8821196 16.14027 4 17.468937 4 19 C 4 20.114227 4.4752606 21.116062 5.21875 21.84375 C 3.88816 22.744728 3 24.281553 3 26 L 5 26 C 5 24.331516 6.3315161 23 8 23 C 9.6684839 23 11 24.331516 11 26 L 13 26 C 13 24.281553 12.11184 22.744728 10.78125 21.84375 C 11.524739 21.116062 12 20.114227 12 19 C 12 18.735763 11.95594 18.469125 11.90625 18.21875 C 14.375784 19.030203 16.09375 19.3125 16.09375 19.3125 L 16.34375 19.34375 L 16.59375 19.28125 L 18.625 18.5625 L 19.5 18.84375 L 19.4375 19.25 L 19.28125 20.15625 L 20.15625 20.40625 L 25.59375 21.875 L 26.59375 22.15625 L 26.8125 21.125 L 27.3125 18.78125 C 27.569354 18.423296 29.774223 15.274599 28.75 11.75 L 28.625 11.3125 L 28.21875 11.125 C 26.467269 10.312728 24.775484 10.883301 23.59375 11 C 23.002883 11.05835 22.579761 11.052304 22.1875 10.875 C 21.795239 10.697696 21.362765 10.346613 20.90625 9.5 C 20.474455 8.6993519 20.284193 8.100029 19.875 7.46875 C 19.465807 6.837471 18.746245 6.2961506 17.78125 6.03125 L 17.21875 5.875 z M 17.625 8.21875 C 17.804944 8.313866 18.067484 8.3773461 18.1875 8.5625 C 18.371103 8.8457517 18.644888 9.423512 19.0625 10.21875 L 16.96875 12.28125 L 18.40625 13.71875 L 20.21875 11.90625 C 20.566585 12.249306 20.945787 12.507619 21.34375 12.6875 C 22.189239 13.069665 23.060367 13.074275 23.8125 13 C 25.075941 12.875232 26.042565 12.705944 26.875 12.875 C 27.193772 15.234788 25.5625 17.875 25.5625 17.875 L 25.4375 18.03125 L 25.375 18.21875 L 25.09375 19.65625 L 21.5625 18.71875 L 21.625 18.34375 L 21.78125 17.5 L 20.9375 17.21875 L 18.90625 16.59375 L 18.59375 16.46875 L 18.28125 16.59375 L 16.1875 17.28125 C 15.84141 17.219148 13.363657 16.771988 10 15.375 C 6.9964606 14.053507 5.6104457 12.430772 5.1875 11.90625 L 5.4375 11.34375 L 5.46875 11.25 L 5.5 11.125 C 5.6905266 10.197561 6.1619482 9.5434746 6.84375 9.21875 C 7.5255518 8.8940254 8.4850308 8.8494564 9.84375 9.5 L 9.875 9.53125 L 9.90625 9.53125 C 11.985298 10.400721 13.879565 10.211289 15.3125 9.65625 C 16.349585 9.2545417 17.068243 8.7028648 17.625 8.21875 z M 8 17 C 9.116414 17 10 17.883586 10 19 C 10 20.116414 9.116414 21 8 21 C 6.883586 21 6 20.116414 6 19 C 6 17.883586 6.883586 17 8 17 z" color="#000" overflow="visible" enable-background="accumulate" font-family="Bitstream Vera Sans"/>
</svg>