<svg xmlns="http://www.w3.org/2000/svg" viewBox="0 0 32 32" enable-background="new 0 0 32 32">
    <path style="text-indent:0;text-align:start;line-height:normal;text-transform:none;block-progression:tb;-inkscape-font-specification:Bitstream Vera Sans" d="M 7 3 L 7 5 C 11.409001 5 13.379005 6.4840989 14.40625 7.875 C 15.433495 9.2659011 15.46875 10.5625 15.46875 10.5625 L 15.5 11.03125 L 15.8125 11.3125 L 19 14.03125 C 19.05946 14.08259 19.04213 14.09518 18.96875 14.125 L 16.625 15.0625 L 16 15.3125 L 16 16 L 16 17 L 13.5 17 C 11.578812 17 10 18.578812 10 20.5 L 10 23 L 10 24 L 11 24 L 15 24 L 15 25.1875 C 14.515394 25.25227 14.049116 25.379189 13.75 25.625 C 13.377241 25.931331 13.182451 26.233253 13.03125 26.40625 C 12.880049 26.579247 12.800573 26.669466 12.53125 26.78125 C 12.261927 26.893034 11.788441 27 11 27 C 10.493689 27 9.5862249 26.623445 8.875 26.1875 C 8.1637751 25.751555 7.65625 25.3125 7.65625 25.3125 L 6.34375 26.84375 C 6.34375 26.84375 6.9599749 27.383695 7.8125 27.90625 C 8.6650251 28.428805 9.7613109 29 11 29 C 11.968059 29 12.695416 28.868154 13.28125 28.625 C 13.867084 28.381846 14.300076 28.019003 14.5625 27.71875 C 14.824924 27.418497 14.940853 27.236107 15 27.1875 C 15.05915 27.13889 15.03085 27.09375 15.3125 27.09375 C 15.885793 27.09375 16.368999 26.761627 16.625 26.40625 C 16.881001 26.050873 17 25.673699 17 25.25 L 17 23 L 17 22 L 16 22 L 12 22 L 12 20.5 C 12 19.659188 12.659188 19 13.5 19 L 17 19 L 18 19 L 18 18 L 18 16.6875 L 19.71875 15.96875 C 21.097373 15.408566 21.439042 13.503914 20.3125 12.53125 L 17.375 10 C 17.306635 9.4074762 17.117861 8.1587844 16.03125 6.6875 C 14.640495 4.8044011 11.878999 3 7 3 z M 8.46875 9.125 L 7.53125 10.875 L 10.03125 12.15625 C 10.007194 12.26289 10 12.386091 10 12.5 C 10 13.328427 10.671573 14 11.5 14 C 11.945889 14 12.350249 13.808848 12.625 13.5 C 12.630255 13.494093 12.619838 13.47474 12.625 13.46875 C 12.774091 13.295754 12.879575 13.103279 12.9375 12.875 C 12.943183 12.852605 12.964088 12.835284 12.96875 12.8125 L 13.53125 11.75 L 8.46875 9.125 z M 27.78125 17.03125 L 19.25 18.875 L 19.6875 20.8125 L 28.21875 18.96875 L 27.78125 17.03125 z M 20.09375 21.46875 L 19.5625 23.375 L 26.40625 25.28125 L 26.9375 23.34375 L 20.09375 21.46875 z" color="#000" overflow="visible" enable-background="accumulate" font-family="Bitstream Vera Sans"/>
</svg>