<svg xmlns="http://www.w3.org/2000/svg" viewBox="0 0 32 32" enable-background="new 0 0 32 32">
    <path style="text-indent:0;text-align:start;line-height:normal;text-transform:none;block-progression:tb;-inkscape-font-specification:Bitstream Vera Sans" d="M 17 5 L 17 6 L 17 14 L 17 15 L 18 15 L 19 15 L 19 16 L 19 17.875 L 20.5625 16.84375 L 23.3125 15 L 29 15 L 30 15 L 30 14 L 30 6 L 30 5 L 29 5 L 18 5 L 17 5 z M 19 7 L 28 7 L 28 13 L 23 13 L 22.6875 13 L 22.4375 13.15625 L 21 14.125 L 21 14 L 21 13 L 20 13 L 19 13 L 19 7 z M 10 8 C 6.6981362 8 4 10.698136 4 14 C 4 15.983743 4.9751342 17.750036 6.46875 18.84375 C 3.831147 20.154076 2 22.864226 2 26 L 4 26 C 4 22.674438 6.674438 20 10 20 C 13.325562 20 16 22.674438 16 26 L 18 26 C 18 22.864226 16.168853 20.154076 13.53125 18.84375 C 15.024866 17.750036 16 15.983743 16 14 C 16 10.698136 13.301864 8 10 8 z M 10 10 C 12.220984 10 14 11.779016 14 14 C 14 16.220984 12.220984 18 10 18 C 7.7790164 18 6 16.220984 6 14 C 6 11.779016 7.7790164 10 10 10 z" color="#000" overflow="visible" enable-background="accumulate" font-family="Bitstream Vera Sans"/>
</svg>