<svg xmlns="http://www.w3.org/2000/svg" viewBox="0 0 32 32" enable-background="new 0 0 32 32">
    <path style="text-indent:0;text-align:start;line-height:normal;text-transform:none;block-progression:tb;-inkscape-font-specification:Bitstream Vera Sans" d="M 8 4 C 6.3550302 4 5 5.3550302 5 7 L 5 15.75 C 5 16.810657 5.4373616 17.843612 6.1875 18.59375 L 9 21.4375 L 9 23 L 11 23 L 11 21 L 11 20.59375 L 10.71875 20.28125 L 7.59375 17.1875 C 7.2178884 16.811638 7 16.281343 7 15.75 L 7 7 C 7 6.4349698 7.4349698 6 8 6 C 8.5650302 6 9 6.4349698 9 7 L 9 10.875 C 8.7586847 10.990498 8.5096617 11.115338 8.3125 11.3125 C 7.3445608 12.278785 7.3455415 13.876791 8.3125 14.84375 L 11.71875 18.28125 L 13.15625 16.84375 L 9.71875 13.4375 C 9.5157085 13.234459 9.5166892 12.951715 9.71875 12.75 C 9.9222366 12.546513 10.233879 12.545335 10.4375 12.75 L 13.84375 16.15625 C 14.588356 16.904855 15 17.911691 15 18.96875 L 15 23 L 17 23 L 17 18.96875 C 17 17.911691 17.411644 16.904855 18.15625 16.15625 L 21.5625 12.75 C 21.766121 12.545335 22.077763 12.546513 22.28125 12.75 C 22.483311 12.951715 22.484291 13.234459 22.28125 13.4375 L 18.84375 16.84375 L 20.28125 18.28125 L 23.6875 14.84375 C 24.654459 13.876791 24.655439 12.278785 23.6875 11.3125 C 23.490338 11.115338 23.241315 10.990498 23 10.875 L 23 7 C 23 6.4349698 23.43497 6 24 6 C 24.56503 6 25 6.4349698 25 7 L 25 15.75 C 25 16.281343 24.782112 16.811638 24.40625 17.1875 L 21.28125 20.28125 L 21 20.59375 L 21 21 L 21 23 L 23 23 L 23 21.4375 L 25.8125 18.59375 C 26.562638 17.843612 27 16.810657 27 15.75 L 27 7 C 27 5.3550302 25.64497 4 24 4 C 22.35503 4 21 5.3550302 21 7 L 21 10.78125 C 20.693078 10.899946 20.405093 11.062381 20.15625 11.3125 L 16.75 14.75 C 16.470651 15.030849 16.21644 15.331907 16 15.65625 C 15.78356 15.331907 15.529348 15.030849 15.25 14.75 L 11.84375 11.3125 C 11.594907 11.062381 11.306922 10.899946 11 10.78125 L 11 7 C 11 5.3550302 9.6449698 4 8 4 z M 8 24 L 8 26 L 24 26 L 24 24 L 8 24 z M 8 27 L 8 29 L 24 29 L 24 27 L 8 27 z" color="#000" overflow="visible" enable-background="accumulate" font-family="Bitstream Vera Sans"/>
</svg>