<svg xmlns="http://www.w3.org/2000/svg" viewBox="0 0 32 32" enable-background="new 0 0 32 32">
    <path style="text-indent:0;text-align:start;line-height:normal;text-transform:none;block-progression:tb;-inkscape-font-specification:Bitstream Vera Sans" d="M 7 4 C 6.4777778 4 5.9395305 4.1854695 5.5625 4.5625 C 5.1854695 4.9395305 5 5.4777778 5 6 L 5 22 C 5 22.522222 5.1854695 23.060469 5.5625 23.4375 C 5.9395305 23.814531 6.4777778 24 7 24 L 13 24 L 13 26 C 13 26.522222 13.185469 27.060469 13.5625 27.4375 C 13.939531 27.814531 14.477778 28 15 28 L 25 28 C 25.522222 28 26.060469 27.814531 26.4375 27.4375 C 26.814531 27.060469 27 26.522222 27 26 L 27 10 C 27 9.4777778 26.814531 8.9395305 26.4375 8.5625 C 26.060469 8.1854695 25.522222 8 25 8 L 19 8 L 19 6 C 19 5.4777778 18.814531 4.9395305 18.4375 4.5625 C 18.060469 4.1854695 17.522222 4 17 4 L 7 4 z M 7 6 L 17 6 L 17 8 L 15 8 C 14.477778 8 13.939531 8.1854695 13.5625 8.5625 C 13.185469 8.9395305 13 9.4777778 13 10 L 13 19 L 10.5 19 L 10.5 21 L 13 21 L 13 22 L 7 22 L 7 6 z M 15 10 L 25 10 L 25 26 L 15 26 L 15 10 z M 18.5 23 L 18.5 25 L 21.5 25 L 21.5 23 L 18.5 23 z" color="#000" overflow="visible" enable-background="accumulate" font-family="Bitstream Vera Sans"/>
</svg>