<svg xmlns="http://www.w3.org/2000/svg" viewBox="0 0 32 32" enable-background="new 0 0 32 32">
    <path style="text-indent:0;text-align:start;line-height:normal;text-transform:none;block-progression:tb;-inkscape-font-specification:Bitstream Vera Sans" d="M 13 4 C 10.250484 4 8 6.2504839 8 9 L 8 14 L 7 14 L 7 13 L 5 13 L 5 14 L 4 14 L 4 16 L 5 16 L 5 22.28125 C 4.4031044 22.627293 4 23.260396 4 24 C 4 25.104569 4.8954305 26 6 26 C 7.1045695 26 8 25.104569 8 24 C 8 23.260396 7.5968956 22.627293 7 22.28125 L 7 16 L 8 16 L 8 17 L 8.90625 17 C 8.3816114 17.530382 8 18.196042 8 19 C 8 20.264654 8.8842266 21.189092 10 21.625 C 10.428305 22.899636 11.118465 24.345826 12.3125 25.59375 C 13.607686 26.947389 15.525504 28 18 28 C 20.474496 28 22.392314 26.947389 23.6875 25.59375 C 24.881535 24.345826 25.571695 22.899636 26 21.625 C 27.115773 21.189092 28 20.264654 28 19 C 28 18.200611 27.617355 17.532161 27.09375 17 L 28 17 L 28 9 C 28 6.2504839 25.749516 4 23 4 L 13 4 z M 13 6 L 23 6 C 24.668484 6 26 7.3315161 26 9 L 26 11.46875 C 25.713457 10.892327 25.366459 10.346279 24.9375 9.84375 C 23.466783 8.1207948 21.116363 7 18 7 C 14.885831 7 12.534576 8.1246727 11.0625 9.84375 C 10.633145 10.345147 10.286578 10.89408 10 11.46875 L 10 9 C 10 7.3315161 11.331516 6 13 6 z M 18 9 C 20.656637 9 22.320217 9.8839552 23.40625 11.15625 C 24.492283 12.428545 25 14.175206 25 16 L 25 17.28125 L 25 17.84375 L 25.5 18.125 C 25.803899 18.300541 26 18.619774 26 19 C 26 19.533588 25.61646 19.957247 25.09375 20 L 24.40625 20.03125 L 24.21875 20.6875 C 23.871296 21.815812 23.211314 23.181389 22.21875 24.21875 C 21.226186 25.256111 19.938504 26 18 26 C 16.061496 26 14.773814 25.256111 13.78125 24.21875 C 12.788686 23.181389 12.128704 21.815812 11.78125 20.6875 L 11.59375 20.03125 L 10.90625 20 C 10.38354 19.957247 10 19.533588 10 19 C 10 18.626072 10.193179 18.302229 10.5 18.125 L 11 17.84375 L 11 17.28125 L 11 16 C 11 14.154476 11.509076 12.391673 12.59375 11.125 C 13.678424 9.8583273 15.341169 9 18 9 z M 20.5 17 C 19.671573 17 19 17.671573 19 18.5 C 19 19.328427 19.671573 20 20.5 20 C 21.328427 20 22 19.328427 22 18.5 C 22 17.671573 21.328427 17 20.5 17 z M 15 18 C 14.447715 18 14 18.447715 14 19 C 14 19.552285 14.447715 20 15 20 C 15.552285 20 16 19.552285 16 19 C 16 18.447715 15.552285 18 15 18 z" color="#000" overflow="visible" enable-background="accumulate" font-family="Bitstream Vera Sans"/>
</svg>