<svg xmlns="http://www.w3.org/2000/svg" viewBox="0 0 32 32" enable-background="new 0 0 32 32">
    <path style="text-indent:0;text-align:start;line-height:normal;text-transform:none;block-progression:tb;-inkscape-font-specification:Bitstream Vera Sans" d="M 16 3 C 8.8321429 3 3 8.8321429 3 16 C 3 23.167857 8.8321429 29 16 29 C 23.167857 29 29 23.167857 29 16 C 29 8.8321429 23.167857 3 16 3 z M 16 5 C 22.086977 5 27 9.9130231 27 16 C 27 22.086977 22.086977 27 16 27 C 9.9130231 27 5 22.086977 5 16 C 5 9.9130231 9.9130231 5 16 5 z M 16 8 C 13.250484 8 11 10.250484 11 13 C 11 14.515614 11.706969 15.862258 12.78125 16.78125 C 10.533165 17.948498 9 20.301065 9 23 L 11 23 C 11 20.226334 13.226334 18 16 18 C 18.773666 18 21 20.226334 21 23 L 23 23 C 23 20.325605 21.496109 17.990405 19.28125 16.8125 C 19.823567 16.492724 20.369094 16.155749 20.875 15.8125 C 22.396894 14.77992 23.65625 13.78125 23.65625 13.78125 L 24.5625 13 L 23.65625 12.21875 C 23.65625 12.21875 22.396894 11.22008 20.875 10.1875 C 20.114053 9.67121 19.293216 9.1256674 18.46875 8.71875 C 17.644284 8.3118326 16.854046 8 16 8 z M 16 10 C 16.250454 10 16.898622 10.188167 17.59375 10.53125 C 18.288878 10.874333 19.068322 11.32879 19.78125 11.8125 C 20.636257 12.392608 20.839653 12.626963 21.3125 13 C 20.839653 13.373037 20.636257 13.607392 19.78125 14.1875 C 19.068322 14.67121 18.288878 15.125667 17.59375 15.46875 C 16.898622 15.811833 16.250454 16 16 16 C 14.331516 16 13 14.668484 13 13 C 13 11.331516 14.331516 10 16 10 z" color="#000" overflow="visible" enable-background="accumulate" font-family="Bitstream Vera Sans"/>
</svg>