<svg xmlns="http://www.w3.org/2000/svg" viewBox="0 0 32 32" enable-background="new 0 0 32 32">
    <path style="text-indent:0;text-align:start;line-height:normal;text-transform:none;block-progression:tb;-inkscape-font-specification:Bitstream Vera Sans" d="M 8 9 C 4.1458513 9 1 12.145852 1 16 C 1 19.854148 4.1458513 23 8 23 L 24 23 C 27.854148 23 31 19.854148 31 16 C 31 12.145852 27.854148 9 24 9 C 20.145852 9 17 12.145852 17 16 C 17 17.958124 17.82064 19.72719 19.125 21 L 12.875 21 C 14.17936 19.72719 15 17.958124 15 16 C 15 12.145852 11.854148 9 8 9 z M 8 11 C 10.773268 11 13 13.226732 13 16 C 13 18.773268 10.773268 21 8 21 C 5.2267317 21 3 18.773268 3 16 C 3 13.226732 5.2267317 11 8 11 z M 24 11 C 26.773268 11 29 13.226732 29 16 C 29 18.773268 26.773268 21 24 21 C 21.226732 21 19 18.773268 19 16 C 19 13.226732 21.226732 11 24 11 z" color="#000" overflow="visible" enable-background="accumulate" font-family="Bitstream Vera Sans"/>
</svg>