<svg xmlns="http://www.w3.org/2000/svg" viewBox="0 0 32 32" enable-background="new 0 0 32 32">
    <path style="text-indent:0;text-align:start;line-height:normal;text-transform:none;block-progression:tb;-inkscape-font-specification:Bitstream Vera Sans" d="M 13 7 L 13 8 L 13 8.40625 C 8.0354269 9.6867164 4.4109978 14.082107 4.125 19.375 C 2.9521479 19.783797 2 20.695704 2 22 L 2 24 L 2 25 L 3 25 L 29 25 L 30 25 L 30 24 L 30 22 C 30 20.695704 29.047852 19.783797 27.875 19.375 C 27.589003 14.082107 23.964573 9.6867164 19 8.40625 L 19 8 L 19 7 L 18 7 L 14 7 L 13 7 z M 15.03125 9 L 17 9 A 1.002073 1.002073 0 0 0 17 9.34375 L 17 15 L 19 15 L 19 10.5 C 22.739086 11.680389 25.567014 14.971361 25.96875 19 L 24 19 L 24 21 L 27 21 C 27.56503 21 28 21.43497 28 22 L 28 23 L 4 23 L 4 22 C 4 21.43497 4.4349698 21 5 21 L 6 21 L 8 21 L 8 19 L 6.03125 19 C 6.4329857 14.971361 9.2609138 11.680389 13 10.5 L 13 15 L 15 15 L 15 9.5 A 1.0121334 1.0121334 0 0 0 15.03125 9 z" color="#000" overflow="visible" enable-background="accumulate" font-family="Bitstream Vera Sans"/>
</svg>