<svg xmlns="http://www.w3.org/2000/svg" viewBox="0 0 32 32" enable-background="new 0 0 32 32">
    <path style="text-indent:0;text-align:start;line-height:normal;text-transform:none;block-progression:tb;-inkscape-font-specification:Bitstream Vera Sans" d="M 13 4 L 13 5 L 13 5.65625 C 12.266295 5.8555031 11.209633 6.2097087 9.9375 7.09375 C 8.1014253 8.3696907 6.2683113 10.72884 6.0625 14.375 C 4.9183969 14.799445 4 15.716388 4 17 L 4 19 L 4 20 L 5 20 L 6.46875 20 C 6.2590782 20.721789 6.1112368 21.511577 6.0625 22.375 C 4.9183969 22.799445 4 23.716388 4 25 L 4 27 L 4 28 L 5 28 L 27 28 L 28 28 L 28 27 L 28 25 C 28 23.716388 27.081603 22.799445 25.9375 22.375 C 25.88877 21.50632 25.74074 20.726042 25.53125 20 L 27 20 L 28 20 L 28 19 L 28 17 C 28 15.716388 27.081603 14.799445 25.9375 14.375 C 25.731719 10.706247 23.901107 8.3325831 22.0625 7.0625 C 20.788613 6.1825172 19.734803 5.8503205 19 5.65625 L 19 5 L 19 4 L 18 4 L 14 4 L 13 4 z M 15 6 L 17 6 L 17 6.40625 L 17 7.28125 L 17 10 L 19 10 L 19 7.71875 C 19.557346 7.9180013 20.232857 8.2319925 20.9375 8.71875 C 22.488495 9.7901554 24 11.559487 24 15 L 24 16 L 25 16 C 25.56503 16 26 16.43497 26 17 L 26 18 L 24.71875 18 C 23.992161 16.699561 23.026544 15.728517 22.0625 15.0625 C 20.788644 14.182447 19.734784 13.85041 19 13.65625 L 19 13 L 19 12 L 18 12 L 14 12 L 13 12 L 13 13 L 13 13.65625 C 12.266295 13.855503 11.209633 14.209709 9.9375 15.09375 C 8.9836623 15.756599 8.0370046 16.723908 7.3125 18 L 6 18 L 6 17 C 6 16.43497 6.4349698 16 7 16 L 8 16 L 8 15 C 8 11.590909 9.5088208 9.8296961 11.0625 8.75 C 11.768363 8.2594759 12.442896 7.9555448 13 7.75 L 13 10 L 15 10 L 15 7.25 L 15 6.40625 L 15 6 z M 15 14 L 17 14 L 17 14.40625 L 17 15.28125 L 17 18 L 19 18 L 19 15.71875 C 19.557342 15.917988 20.232835 16.231928 20.9375 16.71875 C 22.329369 17.680333 23.673025 19.211492 23.9375 22 L 22 22 L 22 24 L 24 24 L 25 24 C 25.56503 24 26 24.43497 26 25 L 26 26 L 6 26 L 6 25 C 6 24.43497 6.4349698 24 7 24 L 8 24 L 10 24 L 10 22 L 8.0625 22 C 8.332312 19.250902 9.6724507 17.715985 11.0625 16.75 C 11.768363 16.259476 12.442896 15.955545 13 15.75 L 13 18 L 15 18 L 15 15.25 L 15 14.40625 L 15 14 z"/>
</svg>